<svg width="48" height="49" viewBox="0 0 48 49" fill="none" xmlns="http://www.w3.org/2000/svg">
<rect x="0.5" y="1" width="47" height="47" rx="9.5" fill="white"/>
<rect x="0.5" y="1" width="47" height="47" rx="9.5" stroke="#EEF0EB"/>
<path d="M24 26.75C24 27.3467 23.7629 27.919 23.341 28.341C22.919 28.7629 22.3467 29 21.75 29H13.5C12.9033 29 12.331 28.7629 11.909 28.341C11.4871 27.919 11.25 27.3467 11.25 26.75C11.25 26.1533 11.4871 25.581 11.909 25.159C12.331 24.7371 12.9033 24.5 13.5 24.5H21.75C22.3467 24.5 22.919 24.7371 23.341 25.159C23.7629 25.581 24 26.1533 24 26.75ZM21.75 17H13.5C12.9033 17 12.331 17.2371 11.909 17.659C11.4871 18.081 11.25 18.6533 11.25 19.25C11.25 19.8467 11.4871 20.419 11.909 20.841C12.331 21.2629 12.9033 21.5 13.5 21.5H21.75C22.3467 21.5 22.919 21.2629 23.341 20.841C23.7629 20.419 24 19.8467 24 19.25C24 18.6533 23.7629 18.081 23.341 17.659C22.919 17.2371 22.3467 17 21.75 17ZM44.25 31.8387V43.25C44.25 43.644 44.1465 44.0311 43.9498 44.3726C43.7532 44.7141 43.4704 44.9979 43.1296 45.1957C42.7888 45.3935 42.4021 45.4984 42.0081 45.4998C41.614 45.5012 41.2266 45.3991 40.8844 45.2038L36.75 42.8413L32.625 45.2038C32.2826 45.4015 31.8941 45.5054 31.4987 45.5052C31.1033 45.505 30.7149 45.4005 30.3728 45.2025C30.0306 45.0044 29.7466 44.7196 29.5495 44.3768C29.3524 44.0341 29.2491 43.6454 29.25 43.25V38.75H7.5C6.50544 38.75 5.55161 38.3549 4.84835 37.6516C4.14509 36.9484 3.75 35.9946 3.75 35V11C3.75 10.0054 4.14509 9.05161 4.84835 8.34835C5.55161 7.64509 6.50544 7.25 7.5 7.25H40.5C41.4946 7.25 42.4484 7.64509 43.1517 8.34835C43.8549 9.05161 44.25 10.0054 44.25 11V17.1613C46.1729 19.12 47.2502 21.7552 47.2502 24.5C47.2502 27.2448 46.1729 29.88 44.25 31.8387ZM36.75 30.5C37.9367 30.5 39.0967 30.1481 40.0834 29.4888C41.0701 28.8295 41.8392 27.8925 42.2933 26.7961C42.7474 25.6997 42.8662 24.4933 42.6347 23.3295C42.4032 22.1656 41.8318 21.0965 40.9926 20.2574C40.1535 19.4182 39.0844 18.8468 37.9205 18.6153C36.7567 18.3838 35.5503 18.5026 34.4539 18.9567C33.3575 19.4108 32.4205 20.1799 31.7612 21.1666C31.1019 22.1533 30.75 23.3133 30.75 24.5C30.75 26.0913 31.3821 27.6174 32.5074 28.7426C33.6326 29.8679 35.1587 30.5 36.75 30.5ZM29.25 34.25V31.8387C27.6268 30.1753 26.6013 28.0203 26.3343 25.7115C26.0674 23.4026 26.574 21.0705 27.7749 19.0805C28.9757 17.0905 30.8029 15.5552 32.97 14.7152C35.1371 13.8752 37.5217 13.778 39.75 14.4387V11.75H8.25V34.25H29.25ZM39.75 39.3725V34.5613C37.7928 35.1463 35.7072 35.1463 33.75 34.5613V39.3725L35.6344 38.2962C35.9742 38.1022 36.3587 38.0002 36.75 38.0002C37.1413 38.0002 37.5258 38.1022 37.8656 38.2962L39.75 39.3725Z" fill="#0705EC"/>
</svg>
