<svg width="52" height="52" viewBox="0 0 52 52" fill="none" xmlns="http://www.w3.org/2000/svg">
<rect x="0.5" y="0.5" width="51" height="51" rx="9.5" stroke="#EEF0EB"/>
<path d="M4.27832 42V38.4C4.27832 37.3 4.56165 36.2667 5.12832 35.3C5.69499 34.3333 6.47832 33.6 7.47832 33.1C9.17832 32.2333 11.095 31.5 13.2283 30.9C15.3617 30.3 17.7117 30 20.2783 30C22.845 30 25.195 30.3 27.3283 30.9C29.4617 31.5 31.3783 32.2333 33.0783 33.1C34.0783 33.6 34.8617 34.3333 35.4283 35.3C35.995 36.2667 36.2783 37.3 36.2783 38.4V42C36.2783 42.5667 36.0863 43.042 35.7023 43.426C35.3183 43.81 34.8437 44.0013 34.2783 44H6.27832C5.71165 44 5.23699 43.808 4.85432 43.424C4.47165 43.04 4.27965 42.5653 4.27832 42ZM20.2783 28C18.0783 28 16.195 27.2167 14.6283 25.65C13.0617 24.0833 12.2783 22.2 12.2783 20H11.7783C11.4783 20 11.237 19.9087 11.0543 19.726C10.8717 19.5433 10.7797 19.3013 10.7783 19C10.777 18.6987 10.869 18.4567 11.0543 18.274C11.2397 18.0913 11.481 18 11.7783 18H12.2783C12.2783 16.5 12.645 15.15 13.3783 13.95C14.1117 12.75 15.0783 11.8 16.2783 11.1V13C16.2783 13.3 16.3703 13.542 16.5543 13.726C16.7383 13.91 16.9797 14.0013 17.2783 14C17.577 13.9987 17.819 13.9073 18.0043 13.726C18.1897 13.5447 18.281 13.3027 18.2783 13V10.3C18.5783 10.2 18.895 10.1253 19.2283 10.076C19.5617 10.0267 19.9117 10.0013 20.2783 10C20.645 9.99867 20.995 10.024 21.3283 10.076C21.6617 10.128 21.9783 10.2027 22.2783 10.3V13C22.2783 13.3 22.3703 13.542 22.5543 13.726C22.7383 13.91 22.9797 14.0013 23.2783 14C23.577 13.9987 23.819 13.9073 24.0043 13.726C24.1897 13.5447 24.281 13.3027 24.2783 13V11.1C25.4783 11.8 26.445 12.75 27.1783 13.95C27.9117 15.15 28.2783 16.5 28.2783 18H28.7783C29.0783 18 29.3203 18.092 29.5043 18.276C29.6883 18.46 29.7797 18.7013 29.7783 19C29.777 19.2987 29.6857 19.5407 29.5043 19.726C29.323 19.9113 29.081 20.0027 28.7783 20H28.2783C28.2783 22.2 27.495 24.0833 25.9283 25.65C24.3617 27.2167 22.4783 28 20.2783 28ZM20.2783 24C21.3783 24 22.3203 23.6087 23.1043 22.826C23.8883 22.0433 24.2797 21.1013 24.2783 20H16.2783C16.2783 21.1 16.6703 22.042 17.4543 22.826C18.2383 23.61 19.1797 24.0013 20.2783 24ZM35.1283 31.2L34.9783 30.5C34.7783 30.4333 34.587 30.3587 34.4043 30.276C34.2217 30.1933 34.0463 30.068 33.8783 29.9L33.2783 30.1C33.045 30.1667 32.8203 30.1667 32.6043 30.1C32.3883 30.0333 32.213 29.8833 32.0783 29.65L31.8783 29.3C31.745 29.1 31.7037 28.8833 31.7543 28.65C31.805 28.4167 31.913 28.2167 32.0783 28.05L32.5783 27.6V26.4L32.0783 25.95C31.9117 25.7833 31.8037 25.5833 31.7543 25.35C31.705 25.1167 31.7463 24.9 31.8783 24.7L32.0783 24.35C32.2117 24.1167 32.387 23.9667 32.6043 23.9C32.8217 23.8333 33.0463 23.8333 33.2783 23.9L33.8783 24.1C34.0117 23.9667 34.1783 23.85 34.3783 23.75C34.5783 23.65 34.7783 23.5667 34.9783 23.5L35.1283 22.8C35.195 22.5667 35.3117 22.3747 35.4783 22.224C35.645 22.0733 35.845 21.9987 36.0783 22H36.4783C36.7117 22 36.9117 22.0753 37.0783 22.226C37.245 22.3767 37.3617 22.568 37.4283 22.8L37.5783 23.5C37.7783 23.5667 37.9783 23.65 38.1783 23.75C38.3783 23.85 38.545 23.9667 38.6783 24.1L39.2783 23.9C39.5117 23.8333 39.737 23.8333 39.9543 23.9C40.1717 23.9667 40.3463 24.1167 40.4783 24.35L40.6783 24.7C40.8117 24.9 40.8537 25.1167 40.8043 25.35C40.755 25.5833 40.6463 25.7833 40.4783 25.95L39.9783 26.4V27.6L40.4783 28.05C40.645 28.2167 40.7537 28.4167 40.8043 28.65C40.855 28.8833 40.813 29.1 40.6783 29.3L40.4783 29.65C40.345 29.8833 40.1703 30.0333 39.9543 30.1C39.7383 30.1667 39.513 30.1667 39.2783 30.1L38.6783 29.9C38.5117 30.0667 38.337 30.192 38.1543 30.276C37.9717 30.36 37.7797 30.4347 37.5783 30.5L37.4283 31.2C37.3617 31.4333 37.245 31.6253 37.0783 31.776C36.9117 31.9267 36.7117 32.0013 36.4783 32H36.0783C35.845 32 35.645 31.9253 35.4783 31.776C35.3117 31.6267 35.195 31.4347 35.1283 31.2ZM36.2783 28.5C36.6783 28.5 37.0283 28.35 37.3283 28.05C37.6283 27.75 37.7783 27.4 37.7783 27C37.7783 26.6 37.6283 26.25 37.3283 25.95C37.0283 25.65 36.6783 25.5 36.2783 25.5C35.8783 25.5 35.5283 25.65 35.2283 25.95C34.9283 26.25 34.7783 26.6 34.7783 27C34.7783 27.4 34.9283 27.75 35.2283 28.05C35.5283 28.35 35.8783 28.5 36.2783 28.5ZM39.6783 20.9L39.4783 19.9C39.1783 19.8 38.903 19.6753 38.6523 19.526C38.4017 19.3767 38.177 19.2013 37.9783 19L36.9283 19.35C36.6283 19.45 36.3283 19.442 36.0283 19.326C35.7283 19.21 35.495 19.018 35.3283 18.75L35.0283 18.25C34.8617 17.9833 34.803 17.692 34.8523 17.376C34.9017 17.06 35.0603 16.7847 35.3283 16.55L36.1783 15.8C36.1117 15.6333 36.0783 15.5 36.0783 15.4V14.6C36.0783 14.5 36.1117 14.3667 36.1783 14.2L35.3283 13.45C35.0617 13.2167 34.903 12.9413 34.8523 12.624C34.8017 12.3067 34.8603 12.0153 35.0283 11.75L35.3283 11.25C35.495 10.9833 35.7283 10.7913 36.0283 10.674C36.3283 10.5567 36.6283 10.5487 36.9283 10.65L37.9783 11C38.1783 10.8 38.4037 10.6253 38.6543 10.476C38.905 10.3267 39.1797 10.2013 39.4783 10.1L39.6783 9.1C39.745 8.76667 39.9037 8.5 40.1543 8.3C40.405 8.1 40.6963 8 41.0283 8H41.5283C41.8617 8 42.1537 8.1 42.4043 8.3C42.655 8.5 42.813 8.76667 42.8783 9.1L43.0783 10.1C43.3783 10.2 43.6537 10.3253 43.9043 10.476C44.155 10.6267 44.3797 10.8013 44.5783 11L45.6283 10.65C45.9283 10.55 46.2283 10.5587 46.5283 10.676C46.8283 10.7933 47.0617 10.9847 47.2283 11.25L47.5283 11.75C47.695 12.0167 47.7537 12.3087 47.7043 12.626C47.655 12.9433 47.4963 13.218 47.2283 13.45L46.3783 14.2C46.445 14.3667 46.4783 14.5 46.4783 14.6V15.4C46.4783 15.5 46.445 15.6333 46.3783 15.8L47.2283 16.55C47.495 16.7833 47.6537 17.0587 47.7043 17.376C47.755 17.6933 47.6963 17.9847 47.5283 18.25L47.2283 18.75C47.0617 19.0167 46.8283 19.2087 46.5283 19.326C46.2283 19.4433 45.9283 19.4513 45.6283 19.35L44.5783 19C44.3783 19.2 44.1537 19.3747 43.9043 19.524C43.655 19.6733 43.3797 19.7987 43.0783 19.9L42.8783 20.9C42.8117 21.2333 42.653 21.5 42.4023 21.7C42.1517 21.9 41.8603 22 41.5283 22H41.0283C40.695 22 40.4037 21.9 40.1543 21.7C39.905 21.5 39.7463 21.2333 39.6783 20.9ZM41.2783 17.5C41.9783 17.5 42.5703 17.2587 43.0543 16.776C43.5383 16.2933 43.7797 15.7013 43.7783 15C43.777 14.2987 43.535 13.7067 43.0523 13.224C42.5697 12.7413 41.9783 12.5 41.2783 12.5C40.5783 12.5 39.9863 12.742 39.5023 13.226C39.0183 13.71 38.777 14.3013 38.7783 15C38.7797 15.6987 39.0217 16.2907 39.5043 16.776C39.987 17.2613 40.5783 17.5027 41.2783 17.5Z" fill="#480DEC"/>
</svg>
