<svg width="49" height="49" viewBox="0 0 49 49" fill="none" xmlns="http://www.w3.org/2000/svg">
<rect x="0.833008" y="1" width="47" height="47" rx="9.5" fill="white"/>
<rect x="0.833008" y="1" width="47" height="47" rx="9.5" stroke="#EEF0EB"/>
<path d="M9.33301 32V30.5H6.33301V32C6.33301 34.7848 7.43925 37.4555 9.40839 39.4246C11.3775 41.3938 14.0482 42.5 16.833 42.5H21.333V39.5H16.833C14.8439 39.5 12.9362 38.7098 11.5297 37.3033C10.1232 35.8968 9.33301 33.9891 9.33301 32ZM36.333 17V18.5H39.333V17C39.333 14.2152 38.2268 11.5445 36.2576 9.57538C34.2885 7.60625 31.6178 6.5 28.833 6.5H24.333V9.5H28.833C29.8179 9.5 30.7932 9.694 31.7031 10.0709C32.6131 10.4478 33.4399 11.0003 34.1363 11.6967C34.8327 12.3931 35.3852 13.2199 35.7621 14.1299C36.139 15.0398 36.333 16.0151 36.333 17ZM16.833 17H7.83301C6.63953 17 5.49494 17.4741 4.65103 18.318C3.80711 19.1619 3.33301 20.3065 3.33301 21.5V24.5H6.33301V21.5C6.33301 21.1022 6.49104 20.7206 6.77235 20.4393C7.05365 20.158 7.43518 20 7.83301 20H16.833C17.2308 20 17.6124 20.158 17.8937 20.4393C18.175 20.7206 18.333 21.1022 18.333 21.5V24.5H21.333V21.5C21.333 20.3065 20.8589 19.1619 20.015 18.318C19.1711 17.4741 18.0265 17 16.833 17ZM12.333 15.5C13.5197 15.5 14.6797 15.1481 15.6664 14.4888C16.6531 13.8295 17.4222 12.8925 17.8763 11.7961C18.3304 10.6997 18.4492 9.49335 18.2177 8.32946C17.9862 7.16557 17.4148 6.09648 16.5756 5.25736C15.7365 4.41825 14.6674 3.8468 13.5035 3.61529C12.3397 3.38378 11.1333 3.5026 10.0369 3.95673C8.94055 4.41085 8.00348 5.17989 7.34419 6.16658C6.6849 7.15328 6.33301 8.31331 6.33301 9.5C6.33301 11.0913 6.96515 12.6174 8.09037 13.7426C9.21559 14.8679 10.7417 15.5 12.333 15.5ZM12.333 6.5C12.9264 6.5 13.5064 6.67595 13.9997 7.00559C14.4931 7.33524 14.8776 7.80377 15.1046 8.35195C15.3317 8.90013 15.3911 9.50333 15.2754 10.0853C15.1596 10.6672 14.8739 11.2018 14.4543 11.6213C14.0348 12.0409 13.5002 12.3266 12.9183 12.4424C12.3363 12.5581 11.7331 12.4987 11.185 12.2716C10.6368 12.0446 10.1682 11.6601 9.8386 11.1667C9.50896 10.6734 9.33301 10.0933 9.33301 9.5C9.33301 8.70435 9.64908 7.94129 10.2117 7.37868C10.7743 6.81607 11.5374 6.5 12.333 6.5ZM40.833 38H31.833C30.6395 38 29.4949 38.4741 28.651 39.318C27.8071 40.1619 27.333 41.3065 27.333 42.5V45.5H30.333V42.5C30.333 42.1022 30.491 41.7206 30.7723 41.4393C31.0537 41.158 31.4352 41 31.833 41H40.833C41.2308 41 41.6124 41.158 41.8937 41.4393C42.175 41.7206 42.333 42.1022 42.333 42.5V45.5H45.333V42.5C45.333 41.3065 44.8589 40.1619 44.015 39.318C43.1711 38.4741 42.0265 38 40.833 38ZM30.333 30.5C30.333 31.6867 30.6849 32.8467 31.3442 33.8334C32.0035 34.8201 32.9406 35.5892 34.0369 36.0433C35.1333 36.4974 36.3397 36.6162 37.5035 36.3847C38.6674 36.1532 39.7365 35.5818 40.5756 34.7426C41.4148 33.9035 41.9862 32.8344 42.2177 31.6705C42.4492 30.5067 42.3304 29.3003 41.8763 28.2039C41.4222 27.1075 40.6531 26.1705 39.6664 25.5112C38.6797 24.8519 37.5197 24.5 36.333 24.5C34.7417 24.5 33.2156 25.1321 32.0904 26.2574C30.9652 27.3826 30.333 28.9087 30.333 30.5ZM39.333 30.5C39.333 31.0933 39.1571 31.6734 38.8274 32.1667C38.4978 32.6601 38.0292 33.0446 37.4811 33.2716C36.9329 33.4987 36.3297 33.5581 35.7477 33.4424C35.1658 33.3266 34.6312 33.0409 34.2117 32.6213C33.7921 32.2018 33.5064 31.6672 33.3907 31.0853C33.2749 30.5033 33.3343 29.9001 33.5614 29.352C33.7884 28.8038 34.1729 28.3352 34.6663 28.0056C35.1596 27.6759 35.7397 27.5 36.333 27.5C37.1287 27.5 37.8917 27.8161 38.4543 28.3787C39.0169 28.9413 39.333 29.7044 39.333 30.5Z" fill="#0705EC"/>
</svg>
