<svg width="48" height="48" viewBox="0 0 48 48" fill="none" xmlns="http://www.w3.org/2000/svg">
<rect x="0.5" y="0.5" width="47" height="47" rx="9.5" stroke="#EEF0EB"/>
<path d="M19.1279 17.46L20.1579 21.186C21.1279 24.696 21.6119 26.452 23.0379 27.25C24.4639 28.05 26.2739 27.578 29.8939 26.638L33.7339 25.638C37.3539 24.698 39.1639 24.228 39.9879 22.846C40.8119 21.462 40.3279 19.706 39.3559 16.196L38.3279 12.472C37.3579 8.96 36.8719 7.204 35.4479 6.406C34.0199 5.606 32.2099 6.078 28.5899 7.02L24.7499 8.016C21.1299 8.956 19.3199 9.428 18.4979 10.812C17.6739 12.194 18.1579 13.95 19.1279 17.46Z" fill="#480DEC"/>
<path d="M4.55389 10.4936C4.60658 10.3036 4.6962 10.1259 4.81761 9.97062C4.93903 9.81533 5.08987 9.68549 5.2615 9.58853C5.43313 9.49157 5.62218 9.42939 5.81786 9.40555C6.01354 9.3817 6.212 9.39666 6.40189 9.44957L9.80789 10.3936C10.7106 10.6387 11.5343 11.1136 12.1989 11.7718C12.8635 12.4301 13.3461 13.2493 13.5999 14.1496L17.9019 29.7216L18.2179 30.8156C19.4934 31.2857 20.5683 32.1805 21.2619 33.3496L21.8819 33.1576L39.6219 28.5476C39.8126 28.4979 40.0112 28.4863 40.2063 28.5134C40.4015 28.5405 40.5894 28.6058 40.7593 28.7056C40.9293 28.8053 41.0779 28.9375 41.1967 29.0947C41.3155 29.2519 41.4022 29.4309 41.4519 29.6216C41.5015 29.8122 41.5131 30.0108 41.486 30.206C41.4589 30.4012 41.3936 30.5891 41.2939 30.759C41.1942 30.9289 41.0619 31.0776 40.9048 31.1964C40.7476 31.3152 40.5686 31.4019 40.3779 31.4516L22.7039 36.0436L22.0439 36.2476C22.0319 38.7876 20.2779 41.1116 17.6239 41.7996C14.4439 42.6276 11.1739 40.7956 10.3219 37.7116C9.46989 34.6256 11.3579 31.4536 14.5379 30.6276C14.6946 30.5872 14.8527 30.5525 15.0119 30.5236L10.7079 14.9476C10.592 14.5474 10.3746 14.184 10.0767 13.8928C9.77878 13.6015 9.41058 13.3924 9.00789 13.2856L5.59989 12.3396C5.40997 12.2871 5.23226 12.1977 5.07691 12.0765C4.92155 11.9553 4.79159 11.8047 4.69446 11.6333C4.59732 11.4618 4.53491 11.273 4.51079 11.0774C4.48667 10.8818 4.50132 10.6835 4.55389 10.4936Z" fill="#480DEC"/>
</svg>
