<svg width="49" height="49" viewBox="0 0 49 49" fill="none" xmlns="http://www.w3.org/2000/svg">
<rect x="1.1665" y="1" width="47" height="47" rx="9.5" fill="white"/>
<rect x="1.1665" y="1" width="47" height="47" rx="9.5" stroke="#EEF0EB"/>
<path fill-rule="evenodd" clip-rule="evenodd" d="M24.7057 6.5C20.1887 6.5 16.0737 7.992 13.6387 9.211C13.4187 9.321 13.2134 9.42833 13.0227 9.533C12.6447 9.739 12.3227 9.931 12.0667 10.1L14.8367 14.178L16.1407 14.697C21.2367 17.268 28.0707 17.268 33.1677 14.697L34.6477 13.929L37.2667 10.1C36.7236 9.74711 36.1596 9.42752 35.5777 9.143C33.1547 7.937 29.1377 6.5 24.7067 6.5M18.2647 11.116C17.2841 10.9314 16.3153 10.6883 15.3637 10.388C17.6447 9.375 21.0437 8.3 24.7067 8.3C27.2437 8.3 29.6427 8.816 31.6267 9.47C29.3017 9.797 26.8207 10.352 24.4567 11.035C22.5967 11.573 20.4227 11.515 18.2647 11.116ZM34.2247 16.18L33.9787 16.304C28.3727 19.132 20.9367 19.132 15.3307 16.304L15.0977 16.186C6.67473 25.427 0.24473 42.497 24.7057 42.497C49.1667 42.497 42.5807 25.11 34.2247 16.18ZM23.6667 24.5C23.1363 24.5 22.6276 24.7107 22.2525 25.0858C21.8774 25.4609 21.6667 25.9696 21.6667 26.5C21.6667 27.0304 21.8774 27.5391 22.2525 27.9142C22.6276 28.2893 23.1363 28.5 23.6667 28.5V24.5ZM25.6667 22.5V21.5H23.6667V22.5C22.6059 22.5 21.5885 22.9214 20.8383 23.6716C20.0882 24.4217 19.6667 25.4391 19.6667 26.5C19.6667 27.5609 20.0882 28.5783 20.8383 29.3284C21.5885 30.0786 22.6059 30.5 23.6667 30.5V34.5C22.7967 34.5 22.0557 33.945 21.7797 33.167C21.7388 33.0397 21.6727 32.9219 21.5855 32.8206C21.4982 32.7193 21.3915 32.6365 21.2717 32.5772C21.1519 32.5178 21.0214 32.4831 20.8879 32.4751C20.7544 32.467 20.6207 32.4858 20.4946 32.5304C20.3686 32.5749 20.2527 32.6443 20.1539 32.7344C20.0551 32.8245 19.9754 32.9335 19.9195 33.0549C19.8635 33.1764 19.8325 33.3078 19.8283 33.4415C19.824 33.5751 19.8466 33.7082 19.8947 33.833C20.1704 34.6131 20.6813 35.2884 21.3568 35.7661C22.0323 36.2437 22.8394 36.5001 23.6667 36.5V37.5H25.6667V36.5C26.7276 36.5 27.745 36.0786 28.4952 35.3284C29.2453 34.5783 29.6667 33.5609 29.6667 32.5C29.6667 31.4391 29.2453 30.4217 28.4952 29.6716C27.745 28.9214 26.7276 28.5 25.6667 28.5V24.5C26.5367 24.5 27.2777 25.055 27.5537 25.833C27.5947 25.9603 27.6607 26.0781 27.748 26.1794C27.8353 26.2807 27.942 26.3635 28.0618 26.4228C28.1816 26.4822 28.3121 26.5169 28.4456 26.5249C28.579 26.533 28.7127 26.5142 28.8388 26.4696C28.9649 26.4251 29.0807 26.3557 29.1795 26.2656C29.2783 26.1755 29.3581 26.0665 29.414 25.9451C29.4699 25.8236 29.5009 25.6922 29.5052 25.5585C29.5094 25.4249 29.4868 25.2918 29.4387 25.167C29.163 24.3869 28.6522 23.7116 27.9767 23.2339C27.3011 22.7563 26.4941 22.4999 25.6667 22.5ZM25.6667 30.5V34.5C26.1972 34.5 26.7059 34.2893 27.0809 33.9142C27.456 33.5391 27.6667 33.0304 27.6667 32.5C27.6667 31.9696 27.456 31.4609 27.0809 31.0858C26.7059 30.7107 26.1972 30.5 25.6667 30.5Z" fill="#0705EC"/>
</svg>
