<svg width="49" height="49" viewBox="0 0 49 49" fill="none" xmlns="http://www.w3.org/2000/svg">
<rect x="0.833008" y="1" width="47" height="47" rx="9.5" stroke="#EEF0EB"/>
<path d="M28.5749 21.4604C28.1999 21.0854 27.6913 20.8748 27.1609 20.8748C26.6306 20.8748 26.122 21.0854 25.7469 21.4604L24.3329 22.8724C23.5785 23.601 22.5681 24.0042 21.5193 23.995C20.4705 23.9859 19.4673 23.5653 18.7257 22.8236C17.984 22.082 17.5633 21.0787 17.5542 20.03C17.5451 18.9812 17.9483 17.9708 18.6769 17.2164L29.9369 5.95235C32.6028 5.34601 35.3919 5.59555 37.9078 6.6655C40.4237 7.73545 42.5382 9.57135 43.9507 11.9121C45.3632 14.2529 46.0017 16.9794 45.7756 19.704C45.5494 22.4286 44.47 25.0125 42.6909 27.0884L38.4749 31.3584L28.5749 21.4604ZM6.65493 9.43635C8.72389 7.36616 11.4309 6.05471 14.3379 5.71425C17.2448 5.37379 20.1816 6.02425 22.6729 7.56035L15.8469 14.3884C14.3685 15.8638 13.5258 17.859 13.4988 19.9475C13.4718 22.036 14.2627 24.0522 15.7025 25.5654C17.1423 27.0786 19.1167 27.9687 21.204 28.0454C23.2913 28.1222 25.3259 27.3796 26.8729 25.9764L27.1609 25.7024L35.6469 34.1864L27.1609 42.6724C26.4108 43.4222 25.3936 43.8435 24.3329 43.8435C23.2723 43.8435 22.255 43.4222 21.5049 42.6724L6.65293 27.8204C4.21519 25.3824 2.8457 22.076 2.8457 18.6284C2.8457 15.1807 4.21719 11.8743 6.65493 9.43635Z" fill="#480DEC"/>
</svg>
