<svg width="49" height="49" viewBox="0 0 49 49" fill="none" xmlns="http://www.w3.org/2000/svg">
<path d="M38.5 18.5003C38.5009 16.0901 37.8795 13.7205 36.6961 11.6208C35.5126 9.5212 33.8072 7.76265 31.7448 6.51541C29.6824 5.26818 27.3329 4.5745 24.9238 4.50154C22.5147 4.42857 20.1276 4.97879 17.9935 6.09892C15.8594 7.21906 14.0507 8.87117 12.7423 10.8953C11.434 12.9195 10.6703 15.2472 10.5254 17.653C10.3804 20.0588 10.859 22.4613 11.9148 24.628C12.9706 26.7946 14.5679 28.652 16.552 30.0203L10.5 40.5003L15.012 40.6863L17.428 44.5003L24.36 32.4923L24.5 32.5003C24.57 32.5043 24.592 32.4943 24.64 32.4923L31.572 44.5003L34.036 40.7683L38.5 40.5003L32.448 30.0203C34.3152 28.7347 35.8418 27.0143 36.8961 25.0074C37.9504 23.0005 38.5009 20.7673 38.5 18.5003ZM14.5 18.5003C14.5 16.5225 15.0865 14.5891 16.1853 12.9446C17.2841 11.3001 18.8459 10.0184 20.6732 9.26148C22.5004 8.50461 24.5111 8.30657 26.4509 8.69242C28.3907 9.07828 30.1725 10.0307 31.5711 11.4292C32.9696 12.8277 33.922 14.6096 34.3079 16.5494C34.6937 18.4892 34.4957 20.4998 33.7388 22.3271C32.9819 24.1544 31.7002 25.7162 30.0557 26.815C28.4112 27.9138 26.4778 28.5003 24.5 28.5003C21.8478 28.5003 19.3043 27.4467 17.4289 25.5713C15.5536 23.696 14.5 21.1524 14.5 18.5003Z" fill="#480DEC"/>
<path d="M24.5 24.5C27.8137 24.5 30.5 21.8137 30.5 18.5C30.5 15.1863 27.8137 12.5 24.5 12.5C21.1863 12.5 18.5 15.1863 18.5 18.5C18.5 21.8137 21.1863 24.5 24.5 24.5Z" fill="#480DEC"/>
</svg>
