<svg width="24" height="25" viewBox="0 0 24 25" fill="none" xmlns="http://www.w3.org/2000/svg">
<rect y="0.5" width="24" height="24.001" rx="2" fill="#4F4F4F"/>
<path d="M6 5.501C5.99974 6.03143 5.78877 6.54004 5.41351 6.91492C5.03825 7.28981 4.52943 7.50027 3.999 7.5C3.46857 7.49974 2.95996 7.28877 2.58508 6.91351C2.21019 6.53825 1.99974 6.02943 2 5.499C2.00027 4.96857 2.21123 4.45996 2.58649 4.08508C2.96175 3.71019 3.47057 3.49974 4.001 3.5C4.53143 3.50027 5.04004 3.71123 5.41492 4.08649C5.78981 4.46175 6.00027 4.97057 6 5.501ZM6.06 8.981H2.06V21.501H6.06V8.981ZM12.38 8.981H8.4V21.501H12.34V14.931C12.34 11.271 17.11 10.931 17.11 14.931V21.501H21.06V13.571C21.06 7.401 14 7.631 12.34 10.661L12.38 8.981Z" fill="white"/>
</svg>
