<svg width="154" height="154" viewBox="0 0 154 154" fill="none" xmlns="http://www.w3.org/2000/svg">
<path d="M19 29.8618L76.7776 13L134.5 29.8618V64.4415C134.5 100.787 111.24 133.054 76.7583 144.543C42.2672 133.054 19 100.78 19 64.4254V29.8618Z" fill="#4475E0" stroke="white" stroke-width="8" stroke-linejoin="round"/>
<path d="M67.5979 60L42 93H48.6724L67.5979 68.6689L86.4021 93L112 60H105.388L86.4021 84.3311L67.5979 60Z" fill="#FF6600"/>
<path d="M92.286 60L82.0347 73.1854L85.2496 77.4106L98.8371 60H92.286Z" fill="#FF6600"/>
<path d="M67.5979 75.6623L54.0711 93H60.6222L67.5979 84.0397L74.4523 93H81.0641L67.5979 75.6623Z" fill="#FF6600"/>
<path d="M67.5979 60L42 93H48.6724L67.5979 68.6689L86.4021 93L112 60H105.388L86.4021 84.3311L67.5979 60Z" stroke="#FF6600"/>
<path d="M92.286 60L82.0347 73.1854L85.2496 77.4106L98.8371 60H92.286Z" stroke="#FF6600"/>
<path d="M67.5979 75.6623L54.0711 93H60.6222L67.5979 84.0397L74.4523 93H81.0641L67.5979 75.6623Z" stroke="#FF6600"/>
</svg>
