<svg width="354" height="136" viewBox="0 0 354 136" fill="none" xmlns="http://www.w3.org/2000/svg">
<path d="M130.258 2L3 134H36.1716L130.258 36.6755L223.742 134L351 2H318.13L223.742 99.3245L130.258 2Z" fill="#FF6600"/>
<path d="M252.993 2L202.029 54.7417L218.012 71.6424L285.561 2H252.993Z" fill="#FF6600"/>
<path d="M130.258 64.649L63.0104 134H95.5788L130.258 98.1589L164.334 134H197.204L130.258 64.649Z" fill="#FF6600"/>
<path d="M130.258 2L3 134H36.1716L130.258 36.6755L223.742 134L351 2H318.13L223.742 99.3245L130.258 2Z" stroke="#FF6600"/>
<path d="M252.993 2L202.029 54.7417L218.012 71.6424L285.561 2H252.993Z" stroke="#FF6600"/>
<path d="M130.258 64.649L63.0104 134H95.5788L130.258 98.1589L164.334 134H197.204L130.258 64.649Z" stroke="#FF6600"/>
<path d="M130.5 1L2 135L37 134L130.5 38.5L223.5 134.5L352 1.5H318L223.5 98.5L130.5 1Z" fill="#480DEC" stroke="#480DEC"/>
</svg>
