<svg width="24" height="24" viewBox="0 0 24 24" fill="none" xmlns="http://www.w3.org/2000/svg">
<path d="M11.9885 4.47904C6.31628 4.47904 1.71729 7.53679 1.71729 11.3085C1.71729 13.4663 3.22703 15.3885 5.57754 16.6395C5.24304 17.7495 4.57554 18.9773 3.28554 20.064C3.28554 20.064 6.29754 19.8645 8.42454 17.7068C8.54679 17.7368 8.67353 17.7593 8.79728 17.7863C8.67674 17.4381 8.61416 17.0725 8.61204 16.704C8.61204 14.1593 11.444 12.1665 15.062 12.1665C17.6593 12.1665 19.8455 13.1985 20.8745 14.721C21.7505 13.716 22.2598 12.5513 22.2598 11.3063C22.2598 7.53529 17.6608 4.47754 11.9885 4.47754V4.47904ZM20.7598 16.7055C20.7598 14.613 18.2098 12.9158 15.0598 12.9158C11.9135 12.9158 9.36129 14.6138 9.36129 16.7063C9.36129 18.7988 11.9135 20.496 15.0613 20.496C15.7573 20.496 16.421 20.409 17.0383 20.256C18.218 21.4545 19.8883 21.5648 19.8883 21.5648C19.1735 20.9618 18.8038 20.28 18.6178 19.6643C19.9213 18.9705 20.7598 17.9033 20.7598 16.7055Z" fill="white"/>
</svg>
