<svg width="18" height="18" viewBox="0 0 18 18" fill="none" xmlns="http://www.w3.org/2000/svg">
<g id="Update">
<path id="Ellipse 105" d="M13.8541 12.5267C13.0049 13.6956 11.7623 14.5188 10.3548 14.8451C8.94729 15.1713 7.46932 14.9787 6.19242 14.3026C4.91553 13.6265 3.92548 12.5124 3.40417 11.1649C2.88285 9.81737 2.8653 8.327 3.35472 6.96759C3.84413 5.60817 4.80766 4.47101 6.06827 3.76504C7.32888 3.05906 8.80191 2.83168 10.2167 3.12467C11.6315 3.41767 12.8931 4.21135 13.7697 5.35992C14.6462 6.50848 15.0789 7.93477 14.9882 9.37675M14.9882 9.37675L16.1132 8.25175M14.9882 9.37675L13.8632 8.25175" stroke="#4F4F4F" stroke-width="2" stroke-linecap="round" stroke-linejoin="round"/>
<path id="Vector 153" d="M9 6V9L11.25 11.25" stroke="#4F4F4F" stroke-width="2" stroke-linecap="round" stroke-linejoin="round"/>
</g>
</svg>
