<svg width="18" height="18" viewBox="0 0 18 18" fill="none" xmlns="http://www.w3.org/2000/svg">
<g id="round-place-24px">
<path id="Shape" fill-rule="evenodd" clip-rule="evenodd" d="M3.75 6.75C3.75 3.8475 6.0975 1.5 9 1.5C11.9025 1.5 14.25 3.8475 14.25 6.75C14.25 9.8775 10.935 14.19 9.5775 15.8325C9.2775 16.1925 8.73 16.1925 8.43 15.8325C7.065 14.19 3.75 9.8775 3.75 6.75ZM7.125 6.75C7.125 7.785 7.965 8.625 9 8.625C10.035 8.625 10.875 7.785 10.875 6.75C10.875 5.715 10.035 4.875 9 4.875C7.965 4.875 7.125 5.715 7.125 6.75Z" fill="#4F4F4F"/>
</g>
</svg>
