<svg width="101" height="105" viewBox="0 0 101 105" fill="none" xmlns="http://www.w3.org/2000/svg">
<g filter="url(#filter0_d_18_222)">
<path d="M48.3809 32.8125C44.9815 32.8125 41.6585 33.8205 38.832 35.7091C36.0055 37.5977 33.8026 40.282 32.5017 43.4226C31.2008 46.5632 30.8604 50.0191 31.5236 53.3531C32.1868 56.6872 33.8238 59.7497 36.2275 62.1534C38.6312 64.5571 41.6937 66.1941 45.0278 66.8573C48.3618 67.5204 51.8176 67.1801 54.9582 65.8792C58.0988 64.5783 60.7832 62.3753 62.6717 59.5489C64.5603 56.7224 65.5684 53.3994 65.5684 50C65.5632 45.4432 63.7507 41.0745 60.5286 37.8523C57.3064 34.6301 52.9377 32.8177 48.3809 32.8125ZM48.3809 60.9375C46.2176 60.9375 44.103 60.296 42.3043 59.0942C40.5057 57.8924 39.1038 56.1842 38.2759 54.1856C37.4481 52.187 37.2315 49.9879 37.6535 47.8662C38.0756 45.7445 39.1173 43.7957 40.6469 42.266C42.1765 40.7364 44.1254 39.6947 46.2471 39.2727C48.3687 38.8506 50.5679 39.0672 52.5665 39.8951C54.565 40.7229 56.2732 42.1248 57.4751 43.9234C58.6769 45.7221 59.3184 47.8368 59.3184 50C59.3151 52.8998 58.1617 55.6799 56.1113 57.7304C54.0608 59.7809 51.2807 60.9342 48.3809 60.9375Z" fill="#FF6600"/>
<path d="M91.2615 62.9529L85.0564 57.8449C86.1564 52.6728 86.1564 47.3272 85.0564 42.1551L91.2615 37.0471C91.9771 36.4607 92.4607 35.6387 92.6255 34.7283C92.7904 33.8179 92.6257 32.8786 92.1611 32.0785L85.7916 21.0467C85.3311 20.244 84.5998 19.6316 83.7288 19.3191C82.8578 19.0067 81.9039 19.0146 81.0382 19.3416L73.5068 22.1633C69.5834 18.6185 64.9548 15.9434 59.9248 14.3133L58.6033 6.38927C58.4537 5.47606 57.9837 4.64597 57.2777 4.04781C56.5716 3.44964 55.6755 3.1225 54.7502 3.12501H42.0115C41.0861 3.12253 40.1902 3.44966 39.4841 4.04778C38.778 4.6459 38.308 5.47591 38.1584 6.38908L36.8377 14.3133C31.8076 15.9433 27.179 18.6185 23.2556 22.1633L15.7234 19.3412C14.8578 19.0145 13.9041 19.0066 13.0332 19.3191C12.1623 19.6316 11.4311 20.2439 10.9707 21.0465L4.60134 32.0791C4.13681 32.8792 3.9723 33.8186 4.13729 34.729C4.30227 35.6393 4.78596 36.4612 5.50173 37.0475L11.7062 42.1551C10.6062 47.3272 10.6062 52.6728 11.7062 57.8449L5.50114 62.9529C4.78549 63.5393 4.30193 64.3613 4.13706 65.2717C3.97219 66.182 4.13677 67.1214 4.60134 67.9215L10.9709 78.9533C11.4314 79.756 12.1626 80.3684 13.0337 80.6809C13.9047 80.9933 14.8585 80.9854 15.7242 80.6584L23.2558 77.8367C27.1792 81.3815 31.8078 84.0567 36.8379 85.6867L38.1586 93.6107C38.3082 94.5239 38.7781 95.354 39.4842 95.9521C40.1902 96.5503 41.0861 96.8774 42.0115 96.875H54.7502C55.6755 96.8775 56.5715 96.5504 57.2776 95.9523C57.9837 95.3542 58.4536 94.5241 58.6033 93.6109L59.9242 85.6867C64.9542 84.0567 69.5828 81.3815 73.5062 77.8367L81.0382 80.6588C81.9039 80.9855 82.8576 80.9933 83.7285 80.6809C84.5993 80.3684 85.3305 79.7561 85.791 78.9535L92.1599 67.9209C92.6246 67.1211 92.7894 66.1819 92.6248 65.2716C92.4601 64.3613 91.9769 63.5394 91.2615 62.9529ZM81.3716 74.1092L71.9754 70.5889L70.5525 72.0213C66.6378 75.9671 61.7412 78.797 56.3679 80.2191L54.4148 80.734L52.7654 90.625H43.9978L42.349 80.734L40.3959 80.2191C35.0226 78.797 30.126 75.9671 26.2113 72.0213L24.7884 70.5889L15.3906 74.1092L11.0076 66.516L18.7476 60.1441L18.2203 58.1963C16.77 52.8283 16.77 47.1717 18.2203 41.8037L18.7476 39.8561L11.0076 33.4842L15.3916 25.8908L24.7879 29.4111L26.2107 27.9787C30.1255 24.0329 35.022 21.203 40.3953 19.7809L42.3484 19.266L43.997 9.37501H52.7654L54.4142 19.266L56.3673 19.7809C61.7406 21.203 66.6372 24.0329 70.5519 27.9787L71.9748 29.4111L81.3711 25.8908L85.7552 33.484L78.0152 39.8561L78.5425 41.8037C79.9928 47.1717 79.9928 52.8283 78.5425 58.1963L78.0152 60.1441L85.7552 66.5158L81.3716 74.1092Z" fill="#FF6600"/>
</g>
<defs>
<filter id="filter0_d_18_222" x="-3.5" y="0" width="108" height="108" filterUnits="userSpaceOnUse" color-interpolation-filters="sRGB">
<feFlood flood-opacity="0" result="BackgroundImageFix"/>
<feColorMatrix in="SourceAlpha" type="matrix" values="0 0 0 0 0 0 0 0 0 0 0 0 0 0 0 0 0 0 127 0" result="hardAlpha"/>
<feOffset dy="4"/>
<feGaussianBlur stdDeviation="2"/>
<feComposite in2="hardAlpha" operator="out"/>
<feColorMatrix type="matrix" values="0 0 0 0 0 0 0 0 0 0 0 0 0 0 0 0 0 0 0.25 0"/>
<feBlend mode="normal" in2="BackgroundImageFix" result="effect1_dropShadow_18_222"/>
<feBlend mode="normal" in="SourceGraphic" in2="effect1_dropShadow_18_222" result="shape"/>
</filter>
</defs>
</svg>
