<svg width="103" height="105" viewBox="0 0 103 105" fill="none" xmlns="http://www.w3.org/2000/svg">
<g filter="url(#filter0_d_18_227)">
<path d="M97.3562 47.4999C97.4594 47.1312 97.5812 46.7718 97.6687 46.3968C97.6875 46.3218 97.6937 46.2468 97.7125 46.1718C98.6052 42.5683 98.6017 38.8009 97.7023 35.199C96.8029 31.5971 95.035 28.2703 92.5531 25.5093C90.2645 22.4319 87.2827 19.9374 83.8496 18.2282C80.4165 16.5189 76.6287 15.6431 72.7937 15.6718H72.6312C72.3187 15.6718 71.9687 15.6937 71.6375 15.7031H71.2594C64.6549 16.0675 58.0902 16.9599 51.6281 18.3718L37.6375 16.1375H37.5281C30.8645 14.9862 24.0072 16.0857 18.0375 19.2625C14.6743 21.2893 11.7862 24.0155 9.56874 27.2562L9.44062 27.4281L9.36249 27.5375C6.42891 31.8892 4.8337 37.0047 4.77373 42.2526C4.71375 47.5004 6.19164 52.651 9.02499 57.0687C8.96562 57.1749 8.93124 57.2937 8.87499 57.4031C8.60415 57.9448 8.37332 58.5057 8.18437 59.0812C8.08437 59.3937 8.00937 59.7249 7.93749 60.0499C7.88124 60.3156 7.82499 60.5781 7.78749 60.8437C7.74893 61.1747 7.72599 61.5074 7.71874 61.8406C7.71874 62.1093 7.68749 62.3718 7.69999 62.6375C7.72187 62.9874 7.76249 63.3343 7.81874 63.6812C7.85624 63.9281 7.87499 64.1749 7.93124 64.4187C8.02499 64.8031 8.14999 65.1812 8.29374 65.5499C8.36562 65.7468 8.41249 65.9499 8.49999 66.1437C8.75624 66.7156 9.06874 67.2562 9.43749 67.7624C10.8514 69.7869 12.9376 71.2442 15.325 71.8749C15.2359 73.2075 15.4577 74.5425 15.9729 75.7747C16.4881 77.0068 17.2826 78.1024 18.2937 78.9749C20.0845 80.5439 22.2808 81.5771 24.6312 81.9562C25.1156 83.5281 25.9656 84.9624 27.1094 86.1437C28.6698 87.8356 30.7787 88.9205 33.0625 89.2062C33.6062 91.0593 34.6375 92.7343 36.05 94.0499C37.7906 95.7624 40.1219 96.7374 42.5625 96.7687C44.3574 96.7602 46.1205 96.2934 47.6844 95.4124C50.0094 96.7437 52.7344 97.1937 55.3656 96.6812C56.7467 96.4285 58.0553 95.875 59.1986 95.0601C60.3418 94.2451 61.2919 93.1887 61.9812 91.9656C62.0469 91.8624 62.0844 91.7718 62.1437 91.6687C64.8 92.2124 67.5656 91.7343 69.8875 90.3312C71.9294 89.1784 73.4838 87.3242 74.2625 85.1124C77.0562 85.1499 79.7625 84.1437 81.8469 82.2843C82.989 81.286 83.8759 80.0292 84.4336 78.6185C84.9913 77.2079 85.2037 75.6843 85.0531 74.1749C85.0531 74.0874 85.0312 74.0187 85.025 73.9343C86.656 73.4456 88.123 72.5219 89.2687 71.2624C90.75 69.7005 91.7036 67.7131 91.9951 65.5803C92.2866 63.4476 91.9014 61.2771 90.8937 59.375C93.7032 56.1288 95.8289 52.3492 97.1437 48.2625C97.2188 48.0218 97.2812 47.7593 97.3562 47.4999ZM92.0062 42.1875C91.8504 43.7587 91.5052 45.3053 90.9781 46.7937L90.8781 47.1062C89.8397 49.8863 88.3418 52.4722 86.4469 54.7562C76.6437 46.1999 62.3844 33.7125 61.2125 32.5937C59.8589 31.2981 58.0611 30.5692 56.1875 30.5562C55.6064 30.5512 55.028 30.6344 54.4719 30.8031C52.4906 31.4281 47.6219 32.9906 43.3719 34.5687C41.7469 35.1718 39.8906 33.6312 39.325 32.3187C38.95 31.5312 38.8875 30.6312 39.1437 29.8C39.6531 28.8781 40.5094 28.1937 41.5219 27.9C51.135 24.5206 61.1787 22.5216 71.3531 21.9625H71.7312C72.0781 21.9625 72.4219 21.9375 72.7406 21.9312C75.0747 21.8928 77.3919 22.332 79.55 23.2218C82.7503 24.6806 85.5602 26.8758 87.75 29.6281C89.7047 31.8403 91.0716 34.5086 91.725 37.3874L91.7531 37.5312C91.9035 38.3005 91.9985 39.0796 92.0375 39.8624C92.0469 40.1156 92.0625 40.4343 92.0625 40.7156C92.0625 41.1687 92.0625 41.6187 92.0094 42.0656L92.0062 42.1875ZM14.0219 62.9968C14 62.8624 14 62.7156 14 62.5749C13.9655 62.2738 13.9655 61.9698 14 61.6687C14.0345 61.4912 14.0794 61.3159 14.1344 61.1437C14.1969 60.8656 14.2906 60.5937 14.4031 60.3343C14.5062 60.1468 14.625 59.9656 14.7562 59.7968C14.9422 59.492 15.1682 59.2135 15.4281 58.9687L15.4469 58.9531L21.325 53.9687C21.7155 53.6679 22.1615 53.4471 22.6375 53.3189C23.1134 53.1907 23.61 53.1576 24.0988 53.2214C24.5875 53.2853 25.0589 53.4449 25.486 53.6911C25.913 53.9372 26.2873 54.2652 26.5875 54.6562C26.8061 54.9762 26.948 55.3422 27.0022 55.726C27.0564 56.1097 27.0214 56.5007 26.9 56.8687L17.6812 65.8499C17.0449 65.8614 16.4164 65.7076 15.8572 65.4036C15.298 65.0996 14.8271 64.6558 14.4906 64.1156C14.2584 63.7792 14.0988 63.3982 14.0219 62.9968ZM21.8844 70.4812L32 60.6249L31.9531 60.5781C32.5223 60.2946 33.1652 60.1942 33.7937 60.2906C34.5969 60.5093 35.3219 60.9593 35.875 61.5843C36.425 62.0531 36.7937 62.6968 36.9187 63.4093C36.9652 64.1312 36.8071 64.8515 36.4625 65.4874C36.4306 65.5744 36.4035 65.6631 36.3812 65.7531L26.1594 75.7124C25.4421 75.7437 24.7266 75.6204 24.0612 75.3508C23.3959 75.0812 22.7963 74.6717 22.3031 74.1499C21.8973 73.6387 21.6429 73.024 21.5689 72.3755C21.4949 71.727 21.6042 71.0707 21.8844 70.4812ZM30.5875 80.1218L41.15 69.8437C41.8219 69.9781 42.4375 70.3218 42.9062 70.8249C43.5541 71.3921 44.0049 72.1505 44.1937 72.9906C44.2431 73.3519 44.2272 73.7192 44.1469 74.0749L35.0125 82.9656C34.4031 83.0787 33.7749 83.0348 33.1872 82.838C32.5994 82.6412 32.0715 82.2979 31.6531 81.8406C31.1651 81.3615 30.7996 80.772 30.5875 80.1218ZM40.3906 89.5343C39.8254 89.0352 39.3791 88.4159 39.0844 87.7218L47.7125 79.3249C48.3281 79.5281 48.8906 79.8624 49.3625 80.3031C49.8031 80.655 50.1356 81.1239 50.3219 81.6562C50.4279 82.0502 50.4279 82.4653 50.3219 82.8593C49.9315 84.1199 49.281 85.2846 48.4125 86.2781L46.05 89.0281H46.0687C45.9906 89.0781 45.9031 89.0999 45.8312 89.1562C44.9502 89.9604 43.8164 90.4322 42.625 90.4906C41.7838 90.4764 40.9816 90.1331 40.3906 89.5343ZM54.3719 90.4937C53.9094 90.5656 53.4437 90.5874 52.9781 90.5562L53.2094 90.2874L53.2844 90.1968L53.2875 90.1999C54.2346 89.0293 55.0363 87.748 55.675 86.3843L57.0562 87.8468C56.9431 88.1413 56.8073 88.4265 56.65 88.6999C56.4272 89.1493 56.1072 89.5434 55.7132 89.8537C55.3191 90.1639 54.8609 90.3826 54.3719 90.4937ZM74.3719 78.8531L68.8125 72.6937C68.3351 72.1351 67.676 71.7629 66.9512 71.6424C66.2264 71.5219 65.4823 71.6609 64.8499 72.035C64.2175 72.4091 63.7373 72.9942 63.4938 73.6874C63.2503 74.3807 63.2592 75.1376 63.5187 75.8249C63.6634 76.2147 63.8844 76.5717 64.1687 76.8749L68.6562 81.8749C68.625 82.1937 68.5594 82.5093 68.4594 82.8124C68.1991 83.6976 67.6053 84.4472 66.8031 84.9031C65.8261 85.5439 64.6405 85.7855 63.4906 85.5781L59.7406 81.5968C59.3358 81.171 58.8183 80.8689 58.2485 80.7256C57.6787 80.5824 57.08 80.6038 56.5219 80.7874C56.4735 80.4839 56.4078 80.1834 56.325 79.8874C55.8091 78.2545 54.8494 76.7971 53.5531 75.6781C52.645 74.8495 51.6046 74.1788 50.475 73.6937C50.4967 73.1123 50.4601 72.5302 50.3656 71.9562C49.9627 69.8282 48.8935 67.8834 47.3125 66.4031C46.1633 65.2394 44.7424 64.3803 43.1781 63.9031C43.1937 63.4843 43.1781 63.0687 43.1312 62.6531C42.8392 60.5483 41.8331 58.6078 40.2812 57.1562C38.8682 55.6769 37.0528 54.6438 35.0594 54.1843C34.3812 54.0534 33.6896 54.0062 33 54.0437C32.7547 52.8829 32.2588 51.7897 31.5469 50.8406C30.7446 49.7987 29.7447 48.9253 28.6045 48.2704C27.4642 47.6154 26.206 47.1918 24.9018 47.0237C23.5977 46.8557 22.2731 46.9465 21.0041 47.2909C19.7351 47.6354 18.5464 48.2268 17.5062 49.0312L17.3969 49.1187L13.5375 52.3687C11.7278 49.0733 10.862 45.3426 11.0351 41.587C11.2082 37.8314 12.4136 34.1962 14.5187 31.0812L14.5844 30.9875C16.2954 28.4362 18.5398 26.2868 21.1625 24.6875C25.9468 22.1958 31.4251 21.37 36.7312 22.3406L38.1812 22.5718C36.039 23.5371 34.3278 25.2583 33.375 27.4062C32.9144 28.5846 32.6953 29.8436 32.7308 31.1084C32.7662 32.3731 33.0554 33.6179 33.5812 34.7687C34.5173 37.0328 36.2631 38.8672 38.4782 39.9141C40.6933 40.9609 43.2189 41.1453 45.5625 40.4312C49.6875 38.9031 54.4187 37.3687 56.1875 36.8093C56.3281 36.8047 56.468 36.8318 56.5968 36.8886C56.7255 36.9454 56.8399 37.0304 56.9312 37.1374C58.4594 38.5749 76.9062 54.7218 84.6125 61.4374L85.2375 61.9718C85.7228 62.7578 85.9302 63.684 85.8265 64.6019C85.7228 65.5198 85.314 66.3764 84.6656 67.0343C84.2203 67.5142 83.6355 67.8422 82.9937 67.9718L77.5781 62.4812C76.9887 61.9201 76.2044 61.61 75.3906 61.6163C74.5769 61.6226 73.7974 61.9448 73.2168 62.5149C72.6361 63.0851 72.2997 63.8585 72.2785 64.672C72.2573 65.4855 72.5529 66.2753 73.1031 66.8749L78.2781 72.1187C78.3 72.2124 78.325 72.3062 78.3531 72.3968L78.3906 72.4937C78.6252 73.1607 78.7672 73.8568 78.8125 74.5624C78.8993 75.0982 78.8532 75.6471 78.6783 76.1609C78.5034 76.6747 78.205 77.1377 77.8094 77.5093C76.875 78.3843 75.6406 78.8656 74.3625 78.8531H74.3719Z" fill="#FF6600"/>
</g>
<defs>
<filter id="filter0_d_18_227" x="-2.5" y="0" width="108" height="108" filterUnits="userSpaceOnUse" color-interpolation-filters="sRGB">
<feFlood flood-opacity="0" result="BackgroundImageFix"/>
<feColorMatrix in="SourceAlpha" type="matrix" values="0 0 0 0 0 0 0 0 0 0 0 0 0 0 0 0 0 0 127 0" result="hardAlpha"/>
<feOffset dy="4"/>
<feGaussianBlur stdDeviation="2"/>
<feComposite in2="hardAlpha" operator="out"/>
<feColorMatrix type="matrix" values="0 0 0 0 0 0 0 0 0 0 0 0 0 0 0 0 0 0 0.25 0"/>
<feBlend mode="normal" in2="BackgroundImageFix" result="effect1_dropShadow_18_227"/>
<feBlend mode="normal" in="SourceGraphic" in2="effect1_dropShadow_18_227" result="shape"/>
</filter>
</defs>
</svg>
