<svg width="24" height="24" viewBox="0 0 24 24" fill="none" xmlns="http://www.w3.org/2000/svg">
<g id="icon-website 1">
<path id="Vector" d="M21.5396 15C21.8368 14.0531 21.9989 13.0454 21.9989 12C21.9989 10.9547 21.8377 9.94688 21.5396 9H16.8145C16.9363 9.98536 16.9982 10.9987 16.9982 12C16.9982 13.0013 16.9363 14.0147 16.8145 15H21.5396Z" fill="#F2F2F2"/>
<path id="Vector_2" d="M14.4355 7.00032C13.8121 4.4748 12.7911 3 12 3C11.2089 3 10.1877 4.47468 9.56445 7.00032H14.4355Z" fill="#F2F2F2"/>
<path id="Vector_3" d="M6.9988 12C6.9988 10.9987 7.06067 9.98536 7.18255 9H2.45743C2.16024 9.94688 1.99805 10.9547 1.99805 12C1.99805 13.0454 2.15929 14.0531 2.45743 15H7.18255C7.06067 14.0147 6.9988 13.0013 6.9988 12Z" fill="#F2F2F2"/>
<path id="Vector_4" d="M9.56445 17C10.1879 19.5255 11.2089 21.0003 12 21.0003C12.7911 21.0003 13.8121 19.5256 14.4355 17H9.56445Z" fill="#F2F2F2"/>
<path id="Vector_5" d="M14.8087 9H9.19128C9.07128 9.91592 9 10.9182 9 12C9 13.0818 9.07128 14.0841 9.19128 15H14.8097C14.9287 14.0841 15 13.0818 15 12C15 10.9182 14.9287 9.91592 14.8087 9Z" fill="#F2F2F2"/>
<path id="Vector_6" d="M16.4728 6.99929H20.6502C19.3181 4.69867 17.098 2.98481 14.4561 2.31641C15.3701 3.40579 16.049 5.07929 16.4728 6.99929Z" fill="#F2F2F2"/>
<path id="Vector_7" d="M7.52607 17H3.34863C4.68082 19.3006 6.90087 21.0145 9.54275 21.6829C8.62875 20.5935 7.94982 18.92 7.52607 17Z" fill="#F2F2F2"/>
<path id="Vector_8" d="M16.4726 17C16.0489 18.92 15.3701 20.5926 14.4561 21.6829C17.098 21.0144 19.318 19.3007 20.6502 17H16.4726Z" fill="#F2F2F2"/>
<path id="Vector_9" d="M7.52429 6.99929C7.94803 5.07929 8.62677 3.40673 9.54085 2.31641C6.89892 2.98485 4.67892 4.6986 3.34668 6.99929H7.52429Z" fill="#F2F2F2"/>
</g>
</svg>
