<svg width="114" height="34" viewBox="0 0 114 34" fill="none" xmlns="http://www.w3.org/2000/svg">
<path d="M14.799 5L2 19H5.33622L14.799 8.6777L24.201 19L37 5H33.6941L24.201 15.3223L14.799 5Z" fill="#FF6600"/>
<path d="M27.143 5L22.0173 10.5938L23.6248 12.3863L30.4185 5H27.143Z" fill="#FF6600"/>
<path d="M14.799 11.6446L8.03553 19H11.3111L14.799 15.1987L18.2262 19H21.5321L14.799 11.6446Z" fill="#FF6600"/>
<path d="M14.799 5L2 19H5.33622L14.799 8.6777L24.201 19L37 5H33.6941L24.201 15.3223L14.799 5Z" stroke="#FF6600"/>
<path d="M27.143 5L22.0173 10.5938L23.6248 12.3863L30.4185 5H27.143Z" stroke="#FF6600"/>
<path d="M14.799 11.6446L8.03553 19H11.3111L14.799 15.1987L18.2262 19H21.5321L14.799 11.6446Z" stroke="#FF6600"/>
<path d="M53.34 16.12V19H43.36V4.8H53.16V7.68H46.64V10.44H52.24V13.1H46.64V16.12H53.34ZM63.8127 4.82H66.8327L68.3127 9.36L69.7927 4.82H72.8327L70.4127 11.42L71.8527 15.2L75.4127 4.8H78.9927L73.4527 19H70.6127L68.3127 13.44L66.0327 19H63.1727L57.6527 4.8H61.2127L64.7927 15.2L66.1927 11.42L63.8127 4.82ZM90.1264 19.12C88.9931 19.12 88.0264 18.9333 87.2264 18.56C86.4264 18.1733 85.7731 17.6533 85.2664 17C84.7731 16.3333 84.4064 15.58 84.1664 14.74C83.9397 13.8867 83.8264 12.9933 83.8264 12.06V4.8H87.1064V12.06C87.1064 12.5933 87.1597 13.1133 87.2664 13.62C87.3731 14.1133 87.5464 14.5533 87.7864 14.94C88.0264 15.3267 88.3331 15.6333 88.7064 15.86C89.0931 16.0867 89.5664 16.2 90.1264 16.2C90.6997 16.2 91.1797 16.0867 91.5664 15.86C91.9531 15.62 92.2597 15.3067 92.4864 14.92C92.7131 14.52 92.8797 14.0733 92.9864 13.58C93.0931 13.0867 93.1464 12.58 93.1464 12.06V4.8H96.4264V12.06C96.4264 13.0467 96.2997 13.9667 96.0464 14.82C95.8064 15.6733 95.4331 16.4267 94.9264 17.08C94.4197 17.72 93.7664 18.22 92.9664 18.58C92.1797 18.94 91.2331 19.12 90.1264 19.12ZM111.288 8.96C111.248 8.89333 111.108 8.79333 110.868 8.66C110.628 8.51333 110.328 8.36 109.968 8.2C109.608 8.04 109.214 7.9 108.788 7.78C108.361 7.66 107.934 7.6 107.508 7.6C106.948 7.6 106.514 7.7 106.208 7.9C105.901 8.08667 105.748 8.38 105.748 8.78C105.748 9.1 105.861 9.35333 106.088 9.54C106.328 9.72667 106.668 9.89333 107.108 10.04C107.548 10.1733 108.088 10.3333 108.728 10.52C109.634 10.76 110.421 11.0533 111.088 11.4C111.754 11.7333 112.261 12.1667 112.608 12.7C112.968 13.2333 113.148 13.94 113.148 14.82C113.148 15.62 113.001 16.3 112.708 16.86C112.414 17.4067 112.014 17.8533 111.508 18.2C111.014 18.5333 110.448 18.78 109.808 18.94C109.168 19.0867 108.508 19.16 107.828 19.16C107.134 19.16 106.421 19.0933 105.688 18.96C104.968 18.8133 104.274 18.6133 103.608 18.36C102.941 18.0933 102.328 17.7733 101.768 17.4L103.208 14.54C103.261 14.6067 103.434 14.7333 103.728 14.92C104.021 15.0933 104.381 15.28 104.808 15.48C105.248 15.6667 105.734 15.8333 106.268 15.98C106.801 16.1267 107.341 16.2 107.888 16.2C108.474 16.2 108.908 16.1067 109.188 15.92C109.481 15.7333 109.628 15.4733 109.628 15.14C109.628 14.78 109.474 14.5 109.168 14.3C108.874 14.1 108.468 13.92 107.948 13.76C107.441 13.6 106.854 13.42 106.188 13.22C105.321 12.9533 104.601 12.6533 104.028 12.32C103.468 11.9867 103.048 11.58 102.768 11.1C102.501 10.62 102.368 10.02 102.368 9.3C102.368 8.3 102.601 7.46 103.068 6.78C103.548 6.08667 104.188 5.56667 104.988 5.22C105.788 4.86 106.661 4.68 107.608 4.68C108.274 4.68 108.914 4.76 109.528 4.92C110.154 5.08 110.734 5.28 111.268 5.52C111.814 5.76 112.301 6 112.728 6.24L111.288 8.96Z" fill="#480DEC"/>
<path d="M6.14 26.6H4.1V32H2.15V26.6H0.1V24.9H6.14V26.6ZM16.9102 30.3V32H11.8502V24.9H16.8202V26.6H13.8002V27.6H16.3802V29.18H13.8002V30.3H16.9102ZM22.3196 28.39C22.3196 27.9567 22.3996 27.5333 22.5596 27.12C22.7263 26.7 22.9663 26.32 23.2796 25.98C23.5929 25.64 23.9729 25.37 24.4196 25.17C24.8729 24.9633 25.3829 24.86 25.9496 24.86C26.6296 24.86 27.2229 25.0033 27.7296 25.29C28.2363 25.57 28.6129 25.9433 28.8596 26.41L27.3696 27.47C27.2829 27.2367 27.1563 27.0567 26.9896 26.93C26.8296 26.8033 26.6529 26.7167 26.4596 26.67C26.2729 26.6167 26.0896 26.59 25.9096 26.59C25.6296 26.59 25.3863 26.6467 25.1796 26.76C24.9796 26.8667 24.8129 27.01 24.6796 27.19C24.5529 27.37 24.4563 27.57 24.3896 27.79C24.3296 28.01 24.2996 28.23 24.2996 28.45C24.2996 28.6967 24.3363 28.9333 24.4096 29.16C24.4829 29.3867 24.5896 29.59 24.7296 29.77C24.8696 29.9433 25.0396 30.08 25.2396 30.18C25.4463 30.28 25.6763 30.33 25.9296 30.33C26.1096 30.33 26.2929 30.3033 26.4796 30.25C26.6663 30.19 26.8363 30.0967 26.9896 29.97C27.1429 29.8433 27.2596 29.6733 27.3396 29.46L28.9296 30.41C28.7896 30.7567 28.5563 31.0533 28.2296 31.3C27.9029 31.5467 27.5329 31.7367 27.1196 31.87C26.7063 31.9967 26.2963 32.06 25.8896 32.06C25.3629 32.06 24.8796 31.9567 24.4396 31.75C24.0063 31.5367 23.6296 31.2567 23.3096 30.91C22.9963 30.5567 22.7529 30.1633 22.5796 29.73C22.4063 29.29 22.3196 28.8433 22.3196 28.39ZM40.9037 24.9V32H38.9537V29.22H36.5737V32H34.6237V24.9H36.5737V27.52H38.9537V24.9H40.9037ZM49.0737 28.51V32H47.1237V24.9H48.6437L51.4937 28.51V24.9H53.4437V32H51.8937L49.0737 28.51ZM62.8627 32.06C62.3227 32.06 61.8327 31.96 61.3927 31.76C60.9527 31.5533 60.5727 31.28 60.2527 30.94C59.9394 30.5933 59.6961 30.2067 59.5227 29.78C59.3561 29.3467 59.2727 28.9 59.2727 28.44C59.2727 27.9667 59.3627 27.5167 59.5427 27.09C59.7227 26.6633 59.9727 26.2833 60.2927 25.95C60.6194 25.61 61.0027 25.3433 61.4427 25.15C61.8894 24.9567 62.3761 24.86 62.9027 24.86C63.4427 24.86 63.9327 24.9633 64.3727 25.17C64.8127 25.37 65.1894 25.6433 65.5027 25.99C65.8161 26.3367 66.0561 26.7267 66.2227 27.16C66.3961 27.5867 66.4827 28.0267 66.4827 28.48C66.4827 28.9467 66.3927 29.3933 66.2127 29.82C66.0394 30.2467 65.7894 30.63 65.4627 30.97C65.1427 31.3033 64.7627 31.57 64.3227 31.77C63.8827 31.9633 63.3961 32.06 62.8627 32.06ZM61.2527 28.46C61.2527 28.7 61.2861 28.9333 61.3527 29.16C61.4194 29.38 61.5194 29.58 61.6527 29.76C61.7861 29.9333 61.9527 30.0733 62.1527 30.18C62.3594 30.28 62.6027 30.33 62.8827 30.33C63.1627 30.33 63.4061 30.2767 63.6127 30.17C63.8194 30.0633 63.9861 29.92 64.1127 29.74C64.2461 29.5533 64.3427 29.35 64.4027 29.13C64.4694 28.9033 64.5027 28.6733 64.5027 28.44C64.5027 28.2 64.4694 27.97 64.4027 27.75C64.3361 27.53 64.2361 27.3333 64.1027 27.16C63.9694 26.98 63.7994 26.84 63.5927 26.74C63.3861 26.64 63.1461 26.59 62.8727 26.59C62.5927 26.59 62.3494 26.6433 62.1427 26.75C61.9427 26.8567 61.7761 27 61.6427 27.18C61.5094 27.3533 61.4094 27.5533 61.3427 27.78C61.2827 28 61.2527 28.2267 61.2527 28.46ZM72.3092 32V24.9H74.2592V30.3H77.4792V32H72.3092ZM86.2709 32.06C85.7309 32.06 85.2409 31.96 84.8009 31.76C84.3609 31.5533 83.9809 31.28 83.6609 30.94C83.3476 30.5933 83.1043 30.2067 82.9309 29.78C82.7643 29.3467 82.6809 28.9 82.6809 28.44C82.6809 27.9667 82.7709 27.5167 82.9509 27.09C83.1309 26.6633 83.3809 26.2833 83.7009 25.95C84.0276 25.61 84.4109 25.3433 84.8509 25.15C85.2976 24.9567 85.7843 24.86 86.3109 24.86C86.8509 24.86 87.3409 24.9633 87.7809 25.17C88.2209 25.37 88.5976 25.6433 88.9109 25.99C89.2243 26.3367 89.4643 26.7267 89.6309 27.16C89.8043 27.5867 89.8909 28.0267 89.8909 28.48C89.8909 28.9467 89.8009 29.3933 89.6209 29.82C89.4476 30.2467 89.1976 30.63 88.8709 30.97C88.5509 31.3033 88.1709 31.57 87.7309 31.77C87.2909 31.9633 86.8043 32.06 86.2709 32.06ZM84.6609 28.46C84.6609 28.7 84.6943 28.9333 84.7609 29.16C84.8276 29.38 84.9276 29.58 85.0609 29.76C85.1943 29.9333 85.3609 30.0733 85.5609 30.18C85.7676 30.28 86.0109 30.33 86.2909 30.33C86.5709 30.33 86.8143 30.2767 87.0209 30.17C87.2276 30.0633 87.3943 29.92 87.5209 29.74C87.6543 29.5533 87.7509 29.35 87.8109 29.13C87.8776 28.9033 87.9109 28.6733 87.9109 28.44C87.9109 28.2 87.8776 27.97 87.8109 27.75C87.7443 27.53 87.6443 27.3333 87.5109 27.16C87.3776 26.98 87.2076 26.84 87.0009 26.74C86.7943 26.64 86.5543 26.59 86.2809 26.59C86.0009 26.59 85.7576 26.6433 85.5509 26.75C85.3509 26.8567 85.1843 27 85.0509 27.18C84.9176 27.3533 84.8176 27.5533 84.7509 27.78C84.6909 28 84.6609 28.2267 84.6609 28.46ZM98.7874 32.05C98.3274 32.05 97.8874 31.97 97.4674 31.81C97.0541 31.6433 96.6874 31.4033 96.3674 31.09C96.0474 30.77 95.7941 30.3867 95.6074 29.94C95.4274 29.4867 95.3374 28.97 95.3374 28.39C95.3374 27.89 95.4308 27.4267 95.6174 27C95.8041 26.5733 96.0608 26.2 96.3874 25.88C96.7208 25.5533 97.1074 25.3 97.5474 25.12C97.9874 24.94 98.4641 24.85 98.9774 24.85C99.6174 24.85 100.197 24.99 100.717 25.27C101.237 25.5433 101.624 25.92 101.877 26.4L100.427 27.51C100.287 27.23 100.077 27.0067 99.7974 26.84C99.5174 26.6667 99.2208 26.58 98.9074 26.58C98.6741 26.58 98.4608 26.6267 98.2674 26.72C98.0741 26.8133 97.9041 26.9433 97.7574 27.11C97.6174 27.2767 97.5074 27.4767 97.4274 27.71C97.3541 27.9367 97.3174 28.1867 97.3174 28.46C97.3174 28.74 97.3574 28.9933 97.4374 29.22C97.5174 29.4467 97.6274 29.6433 97.7674 29.81C97.9141 29.97 98.0874 30.0967 98.2874 30.19C98.4874 30.2767 98.7108 30.32 98.9574 30.32C99.2708 30.32 99.5708 30.2433 99.8574 30.09C100.144 29.93 100.404 29.7067 100.637 29.42V31.32C100.104 31.8067 99.4874 32.05 98.7874 32.05ZM100.537 29.62H99.2274V28.22H102.147V32H100.537V29.62ZM109.15 24.9L110.42 27.8L111.72 24.9H113.84L111.39 29.65V32H109.45V29.63L107.04 24.9H109.15Z" fill="#323232"/>
</svg>
