<svg width="29" height="28" viewBox="0 0 29 28" fill="none" xmlns="http://www.w3.org/2000/svg">
<path d="M6.80017 24.5C6.60117 24.5032 6.40333 24.4692 6.21683 24.3997L15.6132 14.9999L18.7235 18.1137L7.926 24.1804C7.58397 24.3808 7.19651 24.4908 6.80017 24.5ZM5.44217 23.7242C5.25116 23.3783 5.1561 22.9875 5.16683 22.5925V5.43669C5.16526 5.17627 5.20463 4.91722 5.2835 4.66902L14.8887 14.2765L5.43867 23.7265L5.44217 23.7242ZM19.651 17.5899L16.3365 14.2777L19.9917 10.6237L23.2385 12.4472C23.8618 12.7261 24.2788 13.3278 24.3212 14.0094C24.279 14.6916 23.8614 15.2939 23.2373 15.5727L19.651 17.5899ZM15.6132 13.5497L5.88317 3.82086C6.15032 3.62331 6.47375 3.51659 6.806 3.51636C7.1984 3.53029 7.58121 3.64133 7.92017 3.83952L19.063 10.1022L15.6143 13.5497H15.6132Z" fill="white"/>
</svg>
