<svg width="32" height="33" viewBox="0 0 32 33" fill="none" xmlns="http://www.w3.org/2000/svg">
<g id="logos:whatsapp-icon" clip-path="url(#clip0_142_1250)">
<path id="Vector" d="M0.682949 16.3025C0.682199 19.0752 1.3902 21.7824 2.73645 24.1687L0.554199 32.3217L8.7082 30.134C10.9635 31.3903 13.4904 32.0486 16.0582 32.0488H16.0649C24.5418 32.0488 31.4422 24.9905 31.4458 16.3149C31.4474 12.111 29.8489 8.15792 26.9447 5.18383C24.041 2.20999 20.1791 0.571377 16.0643 0.569458C7.58645 0.569458 0.686574 7.62737 0.683074 16.3025" fill="url(#paint0_linear_142_1250)"/>
<path id="Vector_2" d="M0.13375 16.2974C0.132875 19.1698 0.86625 21.9739 2.2605 24.4456L0 32.8909L8.44637 30.6248C10.7736 31.9232 13.3939 32.6077 16.0601 32.6087H16.067C24.848 32.6087 31.9963 25.2965 32 16.3104C32.0015 11.9555 30.3455 7.86027 27.3375 4.77963C24.3291 1.69937 20.3291 0.0017907 16.067 0C7.2845 0 0.13725 7.31116 0.13375 16.2974ZM5.16388 24.0199L4.8485 23.5076C3.52275 21.3506 2.823 18.858 2.824 16.2984C2.82675 8.82929 8.76725 2.75256 16.072 2.75256C19.6095 2.75409 22.934 4.16516 25.4345 6.72535C27.9349 9.28579 29.3108 12.6894 29.3099 16.3094C29.3066 23.7785 23.366 29.856 16.067 29.856H16.0618C13.6851 29.8548 11.3542 29.2017 9.3215 27.9675L8.83775 27.674L3.8255 29.0186L5.16388 24.0199Z" fill="url(#paint1_linear_142_1250)"/>
<path id="Vector_3" d="M12.0847 9.48404C11.7864 8.80575 11.4726 8.79206 11.1889 8.78017C10.9567 8.76994 10.6912 8.7707 10.4259 8.7707C10.1604 8.7707 9.72907 8.8729 9.36445 9.28029C8.99945 9.68805 7.97095 10.6734 7.97095 12.6776C7.97095 14.6819 9.39757 16.6188 9.59645 16.8909C9.79557 17.1624 12.3506 21.4069 16.3971 23.0398C19.7601 24.3967 20.4444 24.1268 21.1743 24.0588C21.9043 23.991 23.5298 23.0736 23.8614 22.1224C24.1933 21.1713 24.1933 20.356 24.0938 20.1856C23.9943 20.0159 23.7288 19.914 23.3307 19.7103C22.9324 19.5066 20.9752 18.5211 20.6103 18.3851C20.2453 18.2493 19.9799 18.1815 19.7144 18.5894C19.4489 18.9966 18.6866 19.914 18.4542 20.1856C18.2221 20.4579 17.9897 20.4918 17.5917 20.2881C17.1933 20.0837 15.9112 19.6541 14.3901 18.2664C13.2066 17.1866 12.4076 15.8532 12.1753 15.4453C11.9431 15.038 12.1504 14.8173 12.3501 14.6143C12.5289 14.4317 12.7483 14.1386 12.9476 13.9008C13.1461 13.6629 13.2123 13.4932 13.3451 13.2215C13.4779 12.9496 13.4114 12.7116 13.3121 12.5079C13.2123 12.3041 12.4387 10.2895 12.0847 9.48404Z" fill="white"/>
</g>
<defs>
<linearGradient id="paint0_linear_142_1250" x1="1545.14" y1="3175.8" x2="1545.14" y2="0.569458" gradientUnits="userSpaceOnUse">
<stop stop-color="#1FAF38"/>
<stop offset="1" stop-color="#60D669"/>
</linearGradient>
<linearGradient id="paint1_linear_142_1250" x1="1600" y1="3289.09" x2="1600" y2="0" gradientUnits="userSpaceOnUse">
<stop stop-color="#F9F9F9"/>
<stop offset="1" stop-color="white"/>
</linearGradient>
<clipPath id="clip0_142_1250">
<rect width="32" height="33" fill="white"/>
</clipPath>
</defs>
</svg>
