<svg width="108" height="110" viewBox="0 0 108 110" fill="none" xmlns="http://www.w3.org/2000/svg">
<g filter="url(#filter0_d_18_238)">
<path d="M104 20.6251V89.3751H4V20.6251H35.25V13.7501C35.25 12.7833 35.4128 11.8881 35.7383 11.0645C36.0638 10.241 36.5033 9.52482 37.0566 8.9161C37.61 8.30737 38.2773 7.80607 39.0586 7.41219C39.8398 7.01831 40.6536 6.83927 41.5 6.87508H66.5C67.3789 6.87508 68.1927 7.05412 68.9414 7.41219C69.6901 7.77026 70.3411 8.25366 70.8945 8.86239C71.4479 9.47111 71.9036 10.2052 72.2617 11.0645C72.6198 11.9239 72.7826 12.8191 72.75 13.7501V20.6251H104ZM41.5 20.6251H66.5V13.7501H41.5V20.6251ZM10.25 27.5001V37.4366L41.5 54.5704V48.1251H66.5V54.5704L97.75 37.4366V27.5001H10.25ZM47.75 55.0001V61.8751H60.25V55.0001H47.75ZM97.75 82.5001V45.0636L66.5 62.3048V68.7501H41.5V62.3048L10.25 45.0636V82.5001H97.75Z" fill="#FF6600"/>
</g>
<defs>
<filter id="filter0_d_18_238" x="0" y="0" width="108" height="118" filterUnits="userSpaceOnUse" color-interpolation-filters="sRGB">
<feFlood flood-opacity="0" result="BackgroundImageFix"/>
<feColorMatrix in="SourceAlpha" type="matrix" values="0 0 0 0 0 0 0 0 0 0 0 0 0 0 0 0 0 0 127 0" result="hardAlpha"/>
<feOffset dy="4"/>
<feGaussianBlur stdDeviation="2"/>
<feComposite in2="hardAlpha" operator="out"/>
<feColorMatrix type="matrix" values="0 0 0 0 0 0 0 0 0 0 0 0 0 0 0 0 0 0 0.25 0"/>
<feBlend mode="normal" in2="BackgroundImageFix" result="effect1_dropShadow_18_238"/>
<feBlend mode="normal" in="SourceGraphic" in2="effect1_dropShadow_18_238" result="shape"/>
</filter>
</defs>
</svg>
