<?xml version="1.0" standalone="no"?>
<svg xmlns:xlink="http://www.w3.org/1999/xlink" id="wave" style="transform:rotate(0deg); transition: 0.3s" viewBox="0 0 1440 100" version="1.1" xmlns="http://www.w3.org/2000/svg"><defs><linearGradient id="sw-gradient-0" x1="0" x2="0" y1="1" y2="0"><stop stop-color="rgba(72, 13, 236, 1)" offset="0%"/><stop stop-color="rgba(72, 13, 236, 1)" offset="100%"/></linearGradient></defs><path style="transform:translate(0, 0px); opacity:1" fill="url(#sw-gradient-0)" d="M0,70L20,63.3C40,57,80,43,120,33.3C160,23,200,17,240,18.3C280,20,320,30,360,41.7C400,53,440,67,480,63.3C520,60,560,40,600,31.7C640,23,680,27,720,38.3C760,50,800,70,840,70C880,70,920,50,960,50C1000,50,1040,70,1080,71.7C1120,73,1160,57,1200,41.7C1240,27,1280,13,1320,20C1360,27,1400,53,1440,63.3C1480,73,1520,67,1560,53.3C1600,40,1640,20,1680,18.3C1720,17,1760,33,1800,43.3C1840,53,1880,57,1920,50C1960,43,2000,27,2040,31.7C2080,37,2120,63,2160,70C2200,77,2240,63,2280,51.7C2320,40,2360,30,2400,28.3C2440,27,2480,33,2520,41.7C2560,50,2600,60,2640,58.3C2680,57,2720,43,2760,40C2800,37,2840,43,2860,46.7L2880,50L2880,100L2860,100C2840,100,2800,100,2760,100C2720,100,2680,100,2640,100C2600,100,2560,100,2520,100C2480,100,2440,100,2400,100C2360,100,2320,100,2280,100C2240,100,2200,100,2160,100C2120,100,2080,100,2040,100C2000,100,1960,100,1920,100C1880,100,1840,100,1800,100C1760,100,1720,100,1680,100C1640,100,1600,100,1560,100C1520,100,1480,100,1440,100C1400,100,1360,100,1320,100C1280,100,1240,100,1200,100C1160,100,1120,100,1080,100C1040,100,1000,100,960,100C920,100,880,100,840,100C800,100,760,100,720,100C680,100,640,100,600,100C560,100,520,100,480,100C440,100,400,100,360,100C320,100,280,100,240,100C200,100,160,100,120,100C80,100,40,100,20,100L0,100Z"/></svg>