<?xml version="1.0" standalone="no"?>
<svg xmlns:xlink="http://www.w3.org/1999/xlink" id="wave" style="transform:rotate(0deg); transition: 0.3s" viewBox="0 0 1440 100" version="1.1" xmlns="http://www.w3.org/2000/svg"><defs><linearGradient id="sw-gradient-0" x1="0" x2="0" y1="1" y2="0"><stop stop-color="rgba(79, 79, 79, 1)" offset="0%"/><stop stop-color="rgba(79, 79, 79, 1)" offset="100%"/></linearGradient></defs><path style="transform:translate(0, 0px); opacity:1" fill="url(#sw-gradient-0)" d="M0,20L14.1,20C28.2,20,56,20,85,28.3C112.9,37,141,53,169,53.3C197.6,53,226,37,254,40C282.4,43,311,67,339,65C367.1,63,395,37,424,26.7C451.8,17,480,23,508,26.7C536.5,30,565,30,593,40C621.2,50,649,70,678,71.7C705.9,73,734,57,762,41.7C790.6,27,819,13,847,18.3C875.3,23,904,47,932,58.3C960,70,988,70,1016,63.3C1044.7,57,1073,43,1101,31.7C1129.4,20,1158,10,1186,8.3C1214.1,7,1242,13,1271,25C1298.8,37,1327,53,1355,60C1383.5,67,1412,63,1440,53.3C1468.2,43,1496,27,1525,20C1552.9,13,1581,17,1609,25C1637.6,33,1666,47,1694,46.7C1722.4,47,1751,33,1779,38.3C1807.1,43,1835,67,1864,71.7C1891.8,77,1920,63,1948,53.3C1976.5,43,2005,37,2019,33.3L2032.9,30L2032.9,100L2018.8,100C2004.7,100,1976,100,1948,100C1920,100,1892,100,1864,100C1835.3,100,1807,100,1779,100C1750.6,100,1722,100,1694,100C1665.9,100,1638,100,1609,100C1581.2,100,1553,100,1525,100C1496.5,100,1468,100,1440,100C1411.8,100,1384,100,1355,100C1327.1,100,1299,100,1271,100C1242.4,100,1214,100,1186,100C1157.6,100,1129,100,1101,100C1072.9,100,1045,100,1016,100C988.2,100,960,100,932,100C903.5,100,875,100,847,100C818.8,100,791,100,762,100C734.1,100,706,100,678,100C649.4,100,621,100,593,100C564.7,100,536,100,508,100C480,100,452,100,424,100C395.3,100,367,100,339,100C310.6,100,282,100,254,100C225.9,100,198,100,169,100C141.2,100,113,100,85,100C56.5,100,28,100,14,100L0,100Z"/></svg>