<svg xmlns="http://www.w3.org/2000/svg" width="608" height="608" viewBox="0 -9 456 456" id="web-design"><path fill="#00efd1" d="M456 102.73v278.192H346.422V202.98l-57.461 57.122-.031-.032-.14-49.14-21.368-30.14-21.363 30.14-.137 91.968-38.5 38.282h-.024v-104.7h-51.187v144.442H0V102.73zm0 0"></path><path fill="#fedb41" d="m288.96 260.102-43.038 42.796.137-91.968h42.73l.14 49.14zm0 0"></path><path fill="#f4b844" d="m267.422 180.79 21.367 30.14h-42.73zm0 0"></path><path fill="#00acea" d="M456 0v102.73H0V0zM204.41 50.5c0-12.148-9.379-22-20.96-22-11.579 0-20.97 9.852-20.97 22s9.391 21.988 20.97 21.988c11.581 0 20.96-9.847 20.96-21.988zm-68.129 0c0-12.148-9.39-22-20.972-22-11.579 0-20.97 9.852-20.97 22s9.391 21.988 20.97 21.988c11.582 0 20.972-9.847 20.972-21.988zm-68.14 0c0-12.148-9.391-22-20.97-22-11.581 0-20.96 9.852-20.96 22s9.379 21.988 20.96 21.988c11.579 0 20.97-9.847 20.97-21.988zm278.28 369.23v18.73H109.579l46.633-46.358v27.007h51.187v-77.93h.024l38.5-38.28 43.039-42.797 57.46-57.122zm-52.671-29.14v-68.68l-68.879 68.68zm0 0"></path><path fill="#00efd1" d="M293.75 321.91v68.68h-68.879zm0 0"></path><path fill="#fedb41" d="M207.398 341.18v77.93h-51.187V236.48h51.187zM183.45 28.5c11.582 0 20.961 9.852 20.961 22s-9.379 21.988-20.96 21.988c-11.579 0-20.97-9.847-20.97-21.988s9.391-22 20.97-22zm-68.14 0c11.582 0 20.972 9.852 20.972 22s-9.39 21.988-20.972 21.988c-11.579 0-20.97-9.847-20.97-21.988s9.391-22 20.97-22zm-68.137 0c11.578 0 20.969 9.852 20.969 22S58.75 72.488 47.17 72.488c-11.581 0-20.96-9.847-20.96-21.988s9.379-22 20.96-22zm0 0"></path><path fill="#f4b844" d="M311.621 325.23a8 8 0 0 0 8 8H346v-16h-26.379a8 8 0 0 0-8 8zm12.457 32a8 8 0 0 0 8 8H346v-16h-13.922a8 8 0 0 0-8 8zm-12.457 33a8 8 0 0 0 8 8H346v-16h-26.379a8 8 0 0 0-8 8zm12.457-98a8 8 0 0 0 8 8H346v-16h-13.922a8 8 0 0 0-8 8zm-4.457-37a8 8 0 0 0 0 16H346v-16zm4.457 165a8 8 0 0 0 8 8H346v-16h-13.922a8 8 0 0 0-8 8zm-138.578-161a8 8 0 0 0-8-8H156v16h21.5a8 8 0 0 0 8-8zm-10.922 22c0-4.417-3.578-8-8-8H156v16h10.578c4.422 0 8-3.582 8-8zm2.922 14H156v16h21.5a8 8 0 0 0 0-16zm-2.922 30c0-4.417-3.578-8-8-8H156v16h10.578c4.422 0 8-3.582 8-8zm2.922 13H156v16h21.5a8 8 0 0 0 0-16zm-10.922 22H156v16h10.578c4.422 0 8-3.582 8-8s-3.578-8-8-8zm20.442 43.04h-9.442a8 8 0 0 1 0-16h9.442a8 8 0 0 1 0 16zm0 0"></path></svg>