<svg xmlns="http://www.w3.org/2000/svg" viewBox="0 0 64 64" id="development"><path fill="#4f5d75" d="M42 14v-4h-2.262a7.968 7.968 0 0 0-.852-2.058l1.6-1.6-2.829-2.827-1.6 1.6A7.968 7.968 0 0 0 34 4.262V2h-4v2.262a7.968 7.968 0 0 0-2.058.852l-1.6-1.6-2.827 2.829 1.6 1.6A7.968 7.968 0 0 0 24.262 10H22v4h2.262a7.968 7.968 0 0 0 .852 2.058l-1.6 1.6 2.828 2.828 1.6-1.6a7.968 7.968 0 0 0 2.058.852V22h4v-2.262a7.968 7.968 0 0 0 2.058-.852l1.6 1.6 2.828-2.828-1.6-1.6A7.968 7.968 0 0 0 39.738 14Z"></path><circle cx="32" cy="12" r="3" fill="#ff9f1c"></circle><path fill="#4f5d75" d="M62 29v-4h-2.262a7.968 7.968 0 0 0-.852-2.058l1.6-1.6-2.828-2.828-1.6 1.6A7.968 7.968 0 0 0 54 19.262V17h-4v2.262a7.968 7.968 0 0 0-2.058.852l-1.6-1.6-2.828 2.828 1.6 1.6A7.968 7.968 0 0 0 44.262 25H42v4h2.262a7.968 7.968 0 0 0 .852 2.058l-1.6 1.6 2.828 2.828 1.6-1.6a7.968 7.968 0 0 0 2.058.852V37h4v-2.262a7.968 7.968 0 0 0 2.058-.852l1.6 1.6 2.828-2.828-1.6-1.6A7.968 7.968 0 0 0 59.738 29Z"></path><circle cx="52" cy="27" r="3" fill="#41ead4"></circle><path fill="#4f5d75" d="M22 29v-4h-2.262a7.968 7.968 0 0 0-.852-2.058l1.6-1.6-2.828-2.828-1.6 1.6A7.968 7.968 0 0 0 14 19.262V17h-4v2.262a7.968 7.968 0 0 0-2.058.852l-1.6-1.6-2.827 2.829 1.6 1.6A7.968 7.968 0 0 0 4.262 25H2v4h2.262a7.968 7.968 0 0 0 .852 2.058l-1.6 1.6 2.828 2.828 1.6-1.6a7.968 7.968 0 0 0 2.058.852V37h4v-2.262a7.968 7.968 0 0 0 2.058-.852l1.6 1.6 2.828-2.828-1.6-1.6A7.968 7.968 0 0 0 19.738 29Z"></path><circle cx="12" cy="27" r="3" fill="#f71735"></circle><path fill="#1b98e0" d="M16.923 53.91c-5.145-.843-5.99-1.688-6.833-6.833a.091.091 0 0 0-.18 0c-.843 5.145-1.688 5.99-6.833 6.833a.091.091 0 0 0 0 .18c5.145.843 5.99 1.688 6.833 6.833a.091.091 0 0 0 .18 0c.843-5.145 1.688-5.99 6.833-6.833a.091.091 0 0 0 0-.18zm44 0c-5.145-.843-5.99-1.688-6.833-6.833a.091.091 0 0 0-.18 0c-.843 5.145-1.688 5.99-6.833 6.833a.091.091 0 0 0 0 .18c5.145.843 5.99 1.688 6.833 6.833a.091.091 0 0 0 .18 0c.843-5.145 1.688-5.99 6.833-6.833a.091.091 0 0 0 0-.18z"></path><path fill="#2d3142" d="M28.71 52h6.58A9.71 9.71 0 0 1 45 61.71V62H19v-.29A9.71 9.71 0 0 1 28.71 52Z"></path><path fill="#247ba0" d="M35.111 62 32 57.714 28.889 62 28 52h8l-.889 10z"></path><path fill="#f71735" d="m32 58 2-6h-4l2 6z"></path><path fill="#ffbf69" d="M38.92 40.88v.55A2.25 2.25 0 0 1 41 43.82a2.6 2.6 0 0 1-.61 1.7 1.936 1.936 0 0 1-1.47.7 6.213 6.213 0 0 1-3.56 5.44l-1.9.99a3.22 3.22 0 0 1-2.92 0l-1.9-.99a6.837 6.837 0 0 1-2.61-2.31 5.727 5.727 0 0 1-.95-3.13 2.419 2.419 0 0 1 0-4.79V41l8.52-2h2.41Z"></path><path fill="#2d3142" d="M40 42a5.036 5.036 0 0 1-3.725-1.7L36 41l-1.091-2a9.3 9.3 0 0 1-7.023 3H24v-2.4c0-3.978 2.931-5.6 6.547-5.6h2.906C37.069 34 40 35.624 40 39.6Z"></path></svg>