<svg xmlns="http://www.w3.org/2000/svg" viewBox="0 0 64 64" id="website-developing"><path fill="#3d9ae2" d="M31 11v30H11a2.006 2.006 0 0 1-2-2V11Z"></path><path fill="#acabb1" d="M61 57v3a1 1 0 0 1-1 1H4a1 1 0 0 1-1-1v-3Z"></path><path fill="#5aaae7" d="M55 5v34a2.006 2.006 0 0 1-2 2H31V3h22a2.006 2.006 0 0 1 2 2Z"></path><path fill="#ff5023" d="M31 3v8H9V5a2.006 2.006 0 0 1 2-2Z"></path><path fill="#1e81ce" d="M29 33v4l-3.32.47a9.8 9.8 0 0 1-1.09 2.62l.68.91H11V26.36a9.427 9.427 0 0 1 2.53-1.04L14 22h4l.47 3.32a9.8 9.8 0 0 1 2.62 1.09l2.69-2.02 2.83 2.83-2.02 2.69a9.8 9.8 0 0 1 1.09 2.62Z"></path><path fill="#ff9811" d="M23.68 35.47a9.8 9.8 0 0 1-1.09 2.62l2.02 2.69-.22.22H11a2.006 2.006 0 0 1-2-2V24.36a9.427 9.427 0 0 1 2.53-1.04L12 20h4l.47 3.32a9.8 9.8 0 0 1 2.62 1.09l2.69-2.02 2.83 2.83-2.02 2.69a9.8 9.8 0 0 1 1.09 2.62L27 31v4Z"></path><circle cx="14" cy="33" r="5" fill="#ffd422"></circle><path fill="#c6c5ca" d="M55 45H9L3 57h58l-6-12z"></path><path d="m61.9 56.553-6-12A1 1 0 0 0 55 44H9a1 1 0 0 0-.895.553l-6 12A1 1 0 0 0 2 57v3a2 2 0 0 0 2 2h56a2 2 0 0 0 2-2v-3a1 1 0 0 0-.1-.447ZM9.618 46h44.764l5 10H4.618ZM4 60v-2h56v2Z"></path><path d="M10 52h2v2h-2zM14 52h2v2h-2zM18 52h28v2H18zM48 52h2v2h-2zM52 52h2v2h-2zM15 48h2v2h-2zM11 48h2v2h-2zM19 48h2v2h-2zM23 48h2v2h-2zM27 48h2v2h-2zM31 48h2v2h-2zM35 48h2v2h-2zM39 48h2v2h-2zM43 48h2v2h-2zM47 48h2v2h-2zM51 48h2v2h-2zM11 42h42a3 3 0 0 0 3-3V5a3 3 0 0 0-3-3H11a3 3 0 0 0-3 3v34a3 3 0 0 0 3 3Zm-1-3v-1.54a6 6 0 1 0 0-8.92v-3.564a8.46 8.46 0 0 1 1.775-.686 1 1 0 0 0 .746-.83l.348-2.46h2.262l.348 2.46a1 1 0 0 0 .744.829 8.722 8.722 0 0 1 2.352.979 1 1 0 0 0 1.115-.058l2-1.5 1.6 1.6-1.5 2a1 1 0 0 0-.058 1.115 8.773 8.773 0 0 1 .979 2.352 1 1 0 0 0 .829.744l2.46.347v2.264l-2.46.347a1 1 0 0 0-.829.744 8.773 8.773 0 0 1-.979 2.352 1 1 0 0 0 .058 1.115l.983 1.31H11a1 1 0 0 1-1-1Zm0-6a4 4 0 1 1 4 4 4 4 0 0 1-4-4Zm20 7h-4.725l-1.5-1.991a10.859 10.859 0 0 0 .682-1.64l2.679-.379A1 1 0 0 0 28 35v-4a1 1 0 0 0-.86-.99l-2.679-.379a10.859 10.859 0 0 0-.682-1.64l1.631-2.171a1 1 0 0 0-.093-1.307l-2.83-2.83a1 1 0 0 0-1.307-.093l-2.171 1.631a10.757 10.757 0 0 0-1.64-.682l-.379-2.679A1 1 0 0 0 16 19h-4a1 1 0 0 0-.99.86l-.379 2.678c-.216.069-.421.159-.631.242V12h20ZM54 5v34a1 1 0 0 1-1 1H32V4h21a1 1 0 0 1 1 1ZM11 4h19v6H10V5a1 1 0 0 1 1-1Z"></path><path d="M12 6h2v2h-2zM16 6h2v2h-2zM20 6h2v2h-2zM38.293 15.707l1.414-1.414L37.414 12l2.293-2.293-1.414-1.414-3 3a1 1 0 0 0 0 1.414zm9.414 0 3-3a1 1 0 0 0 0-1.414l-3-3-1.414 1.414L48.586 12l-2.293 2.293zM41.051 14.683l2.001-6 1.897.633-2 6zM35 19h4v2h-4zM41 19h8v2h-8zM37 23h6v2h-6zM45 23h4v2h-4zM35 27h4v2h-4zM41 27h6v2h-6zM37 31h8v2h-8zM47 31h2v2h-2z"></path></svg>