<svg xmlns="http://www.w3.org/2000/svg" xmlns:xlink="http://www.w3.org/1999/xlink" width="32" height="32" id="handover"><defs><linearGradient id="a"><stop offset="0" stop-color="#000092"></stop><stop offset="1" stop-color="#ff00f3"></stop></linearGradient><linearGradient id="b" x1="1.002" x2="29" y1="16.504" y2="16.504" gradientUnits="userSpaceOnUse" xlink:href="#a"></linearGradient></defs><path fill="url(#b)" d="M22.97 5.004a.5.5 0 0 0-.304.129l-5.5 4.998a.5.5 0 0 0 .336.869H18v6.5a.5.5 0 0 0 .5.5h3.352a.5.5 0 0 0 .05.004h2.2a.5.5 0 0 0 .062-.004H27.5a.5.5 0 0 0 .5-.5V11h.502a.5.5 0 0 0 .336-.87L28 9.37V7.507A.5.5 0 0 0 27.492 7a.5.5 0 0 0-.492.508v.953l-3.662-3.328a.5.5 0 0 0-.367-.13zm.032 1.174 4.01 3.644a.5.5 0 0 0 .072.178h-8.287l4.205-3.822zM19 11h8v6h-2.398v-3.5a.5.5 0 0 0-.5-.5h-2.2a.5.5 0 0 0-.5.5V17H19v-6zm3.402 3h1.2v3h-1.2v-3zm-20.9 1a.5.5 0 0 0-.5.5v10a.5.5 0 0 0 .5.5H6.5a.5.5 0 0 0 .5-.5v-.959l9.814 3.324a.5.5 0 0 0 .038.012c1.087.276 2.342.11 3.29-.527l-.038.025 9.71-5.28a.5.5 0 0 0 .008 0l.239-.134a1.835 1.835 0 0 0 .793-2.303c-.307-.725-.91-1.058-1.381-1.127v-.004a1.986 1.986 0 0 0-.858.067.5.5 0 0 0-.05.02l-5.329 2.472c.007-.068.02-.135.02-.205 0-1.124-.93-2.035-2.059-2.035h-4.44c-.018-.034-.04-.081-.058-.114a5.038 5.038 0 0 0-.888-1.164 5.188 5.188 0 0 0-3.641-1.474H7V15.5a.5.5 0 0 0-.5-.5H1.502zm.5 1H6v9H2.002v-9zM7 17.096h5.17a4.18 4.18 0 0 1 2.941 1.187 4.101 4.101 0 0 1 .711.936c.079.142.132.228.174.326l.131.3h5.07c.6 0 1.059.457 1.059 1.036 0 .431-.256.795-.633.953l-.008.004h-.006a1.1 1.1 0 0 1-.412.08h-6.955v1h6.955c.194 0 .379-.036.557-.086h.002a.5.5 0 0 0 .209-.057l6.98-3.234c.009 0 .174-.054.383-.023.215.03.42.088.606.525a.818.818 0 0 1-.368 1.043l-.232.133-9.709 5.277a.5.5 0 0 0-.04.024c-.657.441-1.678.588-2.478.388l-9.96-3.373a.5.5 0 0 0-.147-.03v-6.41z" color="#000" font-family="sans-serif" font-weight="400" overflow="visible" style="line-height:normal;text-indent:0;text-align:start;text-decoration-line:none;text-decoration-style:solid;text-decoration-color:#000;text-transform:none;block-progression:tb;isolation:auto;mix-blend-mode:normal"></path></svg>