<svg xmlns="http://www.w3.org/2000/svg" fill-rule="evenodd" stroke-linejoin="round" stroke-miterlimit="2" clip-rule="evenodd" viewBox="0 0 48 48" id="search-and-share"><g><path fill="#30a2ff" d="M10.37,17.298c0.936,-3.34 3.565,-5.975 6.901,-6.921c0.531,-0.15 0.84,-0.703 0.689,-1.234c-0.15,-0.531 -0.704,-0.84 -1.235,-0.69c-4.003,1.135 -7.158,4.298 -8.281,8.305c-0.149,0.532 0.161,1.084 0.693,1.233c0.531,0.149 1.084,-0.161 1.233,-0.693Z"></path><path fill="#faaf40" d="M21.112,14.813l-4.151,2.817c-0.526,-0.455 -1.212,-0.73 -1.961,-0.73c-1.656,0 -3,1.344 -3,3c0,1.656 1.344,3 3,3c0.687,0 1.321,-0.232 1.827,-0.621l4.285,2.908c-0.073,0.259 -0.112,0.531 -0.112,0.813c0,1.656 1.344,3 3,3c1.656,-0 3,-1.344 3,-3c0,-1.656 -1.344,-3 -3,-3c-0.646,-0 -1.245,0.205 -1.735,0.553l-4.348,-2.951c0.054,-0.225 0.083,-0.46 0.083,-0.702c0,-0.18 -0.016,-0.356 -0.046,-0.527c0.006,-0.004 0.011,-0.007 0.017,-0.011l4.294,-2.915c0.49,0.348 1.089,0.553 1.735,0.553c1.656,-0 3,-1.344 3,-3c0,-1.656 -1.344,-3 -3,-3c-1.656,-0 -3,1.344 -3,3c0,0.282 0.039,0.554 0.112,0.813Zm2.888,10.187c0.552,-0 1,0.448 1,1c0,0.552 -0.448,1 -1,1c-0.552,-0 -1,-0.448 -1,-1c0,-0.552 0.448,-1 1,-1Zm-9,-6.1c0.552,0 1,0.448 1,1c0,0.552 -0.448,1 -1,1c-0.552,0 -1,-0.448 -1,-1c0,-0.552 0.448,-1 1,-1Zm9,-5.9c0.552,-0 1,0.448 1,1c0,0.552 -0.448,1 -1,1c-0.552,-0 -1,-0.448 -1,-1c0,-0.552 0.448,-1 1,-1Z"></path><path fill="#30a2ff" d="M30.582,31.997l3.317,3.317l0,-0c-0.562,0.562 -0.878,1.325 -0.878,2.121c-0,0.796 0.316,1.559 0.879,2.121c1.404,1.405 3.545,3.546 4.949,4.95c0.563,0.563 1.326,0.879 2.122,0.879c0.795,-0 1.558,-0.316 2.121,-0.879l1.414,-1.414c0.563,-0.563 0.879,-1.326 0.879,-2.121c-0,-0.796 -0.316,-1.559 -0.879,-2.122l-4.95,-4.949c-0.562,-0.563 -1.325,-0.879 -2.121,-0.879c-0.796,-0 -1.559,0.316 -2.121,0.878l-0,0l-3.317,-3.317c2.491,-2.821 4.003,-6.526 4.003,-10.582c0,-8.831 -7.169,-16 -16,-16c-8.831,0 -16,7.169 -16,16c0,8.831 7.169,16 16,16c4.056,-0 7.761,-1.512 10.582,-4.003Zm7.56,3.317l4.95,4.949c0.187,0.188 0.293,0.442 0.293,0.708c-0,0.265 -0.106,0.519 -0.293,0.707c-0,-0 -1.414,1.414 -1.414,1.414c-0.188,0.187 -0.442,0.293 -0.707,0.293c-0.266,-0 -0.52,-0.106 -0.708,-0.293l-4.949,-4.95c-0.188,-0.187 -0.293,-0.442 -0.293,-0.707c-0,-0.265 0.105,-0.52 0.293,-0.707c-0,-0 1.414,-1.414 1.414,-1.414c0.187,-0.188 0.442,-0.293 0.707,-0.293c0.265,-0 0.52,0.105 0.707,0.293Zm-18.142,-29.314c7.727,0 14,6.273 14,14c0,7.727 -6.273,14 -14,14c-7.727,-0 -14,-6.273 -14,-14c0,-7.727 6.273,-14 14,-14Z"></path></g></svg>