<svg xmlns="http://www.w3.org/2000/svg" enable-background="new 0 0 66 66" viewBox="0 0 66 66" id="digital-binary-code"><path fill="#E6E6E8" d="M34.7,65v-7.8c0,0,12.9,2.1,11.6-4.3c0,0-1.6-2.9-0.3-3.5c1.3-0.5,2.3-1.4,1.2-2.6c0,0,1.3-0.7,0.5-1.6
				c-0.7-0.9-0.6-2.4,0.2-2.5s4.6-0.5,2.2-3.8s-4.6-5.5-3.4-8S45.6,17,41,13s-22.2-8-31,2S9.4,40.6,9.4,40.6s2.6,5.1,2.7,7.9
				C12.3,51.3,10,65,10,65H34.7z"></path><polygon fill="#D4D8DB" points="25.2 55.4 22.5 64.4 34.7 65 34.7 57.2"></polygon><path fill="#E8664A" d="M47.2,34.8h-11v-8.1h10.7C47.2,29.1,47.4,31.9,47.2,34.8z"></path><polygon fill="#465C6A" points="19 49.7 16.4 49.7 16.4 36.1 11.1 36.1 11.1 25.2 13.7 25.2 13.7 33.5 19 33.5"></polygon><polygon fill="#465C6A" points="26.7 49.7 24.1 49.7 24.1 33.5 29.4 33.5 29.4 25.2 31.9 25.2 31.9 36.1 26.7 36.1"></polygon><path fill="#1E87B7" d="M29,55.4v-6.1c0-0.8-0.6-1.4-1.4-1.4H12L10,65h24.8v-7.8L29,55.4z"></path><rect width="2.6" height="12.6" x="20.3" y="16.7" fill="#465C6A"></rect><circle cx="21.6" cy="16.7" r="4.1" fill="#E8664A"></circle><circle cx="21.6" cy="16.7" r="2.5" fill="#D95239"></circle><path fill="#E8664A" d="M19.1,16.7c0-1.4,1.1-2.5,2.5-2.5v-1.6c-2.2,0-4.1,1.8-4.1,4.1s1.8,4.1,4.1,4.1v-1.6
					C20.2,19.2,19.1,18.1,19.1,16.7z"></path><path fill="#D95239" d="M21.6 12.6v1.6c1.4 0 2.5 1.1 2.5 2.5s-1.1 2.5-2.5 2.5v1.6c2.2 0 4.1-1.8 4.1-4.1S23.8 12.6 21.6 12.6zM19.1 16.7c0 1.4 1.1 2.5 2.5 2.5v-5C20.2 14.2 19.1 15.3 19.1 16.7z"></path><path fill="#E8664A" d="M24.1,16.7c0-1.4-1.1-2.5-2.5-2.5v5C23,19.2,24.1,18.1,24.1,16.7z"></path><g><circle cx="30.6" cy="23.4" r="4.1" fill="#E8664A"></circle><circle cx="30.6" cy="23.4" r="2.5" fill="#D95239"></circle><path fill="#6FAC43" d="M28.1,23.4c0-1.4,1.1-2.5,2.5-2.5v-1.6c-2.2,0-4.1,1.8-4.1,4.1s1.8,4.1,4.1,4.1v-1.6
					C29.3,25.9,28.1,24.8,28.1,23.4z"></path><path fill="#639C42" d="M30.6 19.3v1.6c1.4 0 2.5 1.1 2.5 2.5s-1.1 2.5-2.5 2.5v1.6c2.2 0 4.1-1.8 4.1-4.1S32.9 19.3 30.6 19.3zM28.1 23.4c0 1.4 1.1 2.5 2.5 2.5v-5C29.3 20.9 28.1 22 28.1 23.4z"></path><path fill="#6FAC43" d="M33.2,23.4c0-1.4-1.1-2.5-2.5-2.5v5C32,25.9,33.2,24.8,33.2,23.4z"></path></g><g><circle cx="12.4" cy="23.4" r="4.1" fill="#E8664A"></circle><circle cx="12.4" cy="23.4" r="2.5" fill="#D95239"></circle><path fill="#1E87B7" d="M9.9,23.4c0-1.4,1.1-2.5,2.5-2.5v-1.6c-2.2,0-4.1,1.8-4.1,4.1s1.8,4.1,4.1,4.1v-1.6
					C11.1,25.9,9.9,24.8,9.9,23.4z"></path><path fill="#1576AC" d="M12.4 19.3v1.6c1.4 0 2.5 1.1 2.5 2.5s-1.1 2.5-2.5 2.5v1.6c2.2 0 4.1-1.8 4.1-4.1S14.7 19.3 12.4 19.3zM9.9 23.4c0 1.4 1.1 2.5 2.5 2.5v-5C11.1 20.9 9.9 22 9.9 23.4z"></path><path fill="#1E87B7" d="M15,23.4c0-1.4-1.1-2.5-2.5-2.5v5C13.8,25.9,15,24.8,15,23.4z"></path></g><polygon fill="#036F9F" points="29 55.4 20.6 55.4 20.6 65 34.7 65 34.7 57.2"></polygon><polygon fill="#036F9F" points="20.6 55.4 20.6 48 12 48 11.1 55.4"></polygon><g><path fill="#6FAC43" d="M38.6 1.1h2.5v6.1h-1.3V2.3h-1.2V1.1zM44.8 7.3c-1.8 0-2.5-1.4-2.5-3.1 0-1.8.7-3.1 2.5-3.1s2.5 1.4 2.5 3.1S46.6 7.3 44.8 7.3zM43.7 4.1c0 .9.2 2 1.2 2 .9 0 1.2-1.1 1.2-2s-.2-2-1.2-2S43.7 3.2 43.7 4.1zM48.1 1.1h2.5v6.1h-1.3V2.3h-1.2V1.1zM54.3 7.3c-1.8 0-2.5-1.4-2.5-3.1 0-1.8.7-3.1 2.5-3.1s2.5 1.4 2.5 3.1S56.1 7.3 54.3 7.3zM53.1 4.1c0 .9.2 2 1.2 2 .9 0 1.2-1.1 1.2-2s-.2-2-1.2-2C53.4 2.1 53.1 3.2 53.1 4.1zM57.6 1.1H60v6.1h-1.3V2.3h-1.2L57.6 1.1 57.6 1.1zM38.4 9.2h2.5v6.1h-1.3v-4.9h-1.2V9.2zM45.1 15.4c-1.8 0-2.5-1.4-2.5-3.1 0-1.8.7-3.1 2.5-3.1s2.5 1.4 2.5 3.1S46.9 15.4 45.1 15.4zM43.9 12.2c0 .9.2 2 1.2 2 .9 0 1.2-1.1 1.2-2s-.2-2-1.2-2C44.1 10.2 43.9 11.3 43.9 12.2zM52 15.4c-1.8 0-2.5-1.4-2.5-3.1 0-1.8.7-3.1 2.5-3.1s2.5 1.4 2.5 3.1S53.8 15.4 52 15.4zM50.8 12.2c0 .9.2 2 1.2 2 .9 0 1.2-1.1 1.2-2s-.2-2-1.2-2C51.1 10.2 50.8 11.3 50.8 12.2zM57 9.2h2.5v6.1h-1.3v-4.9H57V9.2zM38.6 17.3h2.5v6.1h-1.3v-4.9h-1.2V17.3zM44.8 23.4c-1.8 0-2.5-1.4-2.5-3.1 0-1.8.7-3.1 2.5-3.1s2.5 1.4 2.5 3.1C47.3 22.1 46.6 23.4 44.8 23.4zM43.7 20.3c0 .9.2 2 1.2 2 .9 0 1.2-1.1 1.2-2s-.2-2-1.2-2S43.7 19.4 43.7 20.3zM48.1 17.3h2.5v6.1h-1.3v-4.9h-1.2V17.3zM52.5 17.3H55v6.1h-1.3v-4.9h-1.2V17.3zM57 17.3h2.5v6.1h-1.3v-4.9H57V17.3z"></path></g></svg>