<svg width="24" height="24" viewBox="0 0 24 24" fill="none" xmlns="http://www.w3.org/2000/svg">
<g id="ph:link">
<path id="Vector" d="M22.4996 8.27158C22.4619 9.5772 21.9251 10.8187 20.9996 11.7403L17.7417 15C17.2673 15.4771 16.7029 15.8553 16.0812 16.1128C15.4596 16.3703 14.793 16.5019 14.1202 16.5H14.1155C13.4312 16.4995 12.7538 16.3619 12.1236 16.0953C11.4933 15.8286 10.9229 15.4384 10.446 14.9476C9.96909 14.4568 9.59538 13.8754 9.34695 13.2377C9.09851 12.6001 8.98039 11.9191 8.99956 11.235C9.00515 11.0361 9.08954 10.8476 9.23414 10.7109C9.37875 10.5742 9.57174 10.5005 9.77065 10.5061C9.96956 10.5117 10.1581 10.5961 10.2948 10.7407C10.4315 10.8853 10.5052 11.0783 10.4996 11.2772C10.4859 11.7609 10.5693 12.2424 10.7449 12.6933C10.9205 13.1442 11.1847 13.5553 11.5219 13.9023C11.8591 14.2494 12.2624 14.5253 12.708 14.7139C13.1537 14.9024 13.6326 14.9997 14.1164 15C14.5921 15.0012 15.0632 14.9081 15.5027 14.7261C15.9422 14.5441 16.3412 14.2768 16.6767 13.9397L19.9346 10.6819C20.6067 10.0013 20.9823 9.08238 20.9793 8.12581C20.9763 7.16924 20.595 6.25271 19.9186 5.57631C19.2422 4.89991 18.3256 4.51859 17.3691 4.5156C16.4125 4.5126 15.4936 4.88818 14.813 5.56033L13.7817 6.59158C13.6399 6.7263 13.4511 6.80029 13.2556 6.79779C13.06 6.79528 12.8731 6.71648 12.7348 6.57818C12.5965 6.43988 12.5177 6.25302 12.5152 6.05745C12.5127 5.86188 12.5867 5.67307 12.7214 5.53127L13.7527 4.50002C14.2285 4.02408 14.7933 3.64653 15.4151 3.38895C16.0368 3.13136 16.7032 2.99878 17.3761 2.99878C18.0491 2.99878 18.7155 3.13136 19.3372 3.38895C19.9589 3.64653 20.5238 4.02408 20.9996 4.50002C21.4924 4.99404 21.8795 5.58318 22.1374 6.23157C22.3952 6.87996 22.5185 7.57405 22.4996 8.27158ZM10.2183 17.4056L9.18706 18.4369C8.85074 18.7755 8.45044 19.0439 8.00945 19.2264C7.56845 19.4089 7.09557 19.5019 6.61831 19.5C5.90234 19.4994 5.20261 19.2867 4.60752 18.8886C4.01244 18.4905 3.54871 17.9249 3.27492 17.2634C3.00113 16.6018 2.92957 15.874 3.06928 15.1718C3.20899 14.4695 3.55371 13.8245 4.05987 13.3181L7.31206 10.0603C7.8243 9.54539 8.47953 9.19637 9.19267 9.0586C9.90582 8.92083 10.6439 9.00068 11.3111 9.28777C11.9783 9.57486 12.5437 10.0559 12.934 10.6685C13.3242 11.2811 13.5213 11.9968 13.4996 12.7228C13.494 12.9217 13.5676 13.1147 13.7043 13.2593C13.841 13.4039 14.0296 13.4883 14.2285 13.4939C14.4274 13.4995 14.6204 13.4259 14.765 13.2892C14.9096 13.1525 14.994 12.9639 14.9996 12.765C15.0176 12.0686 14.8939 11.3757 14.636 10.7285C14.3782 10.0813 13.9915 9.49327 13.4996 9.00002C12.5388 8.03967 11.236 7.50019 9.87753 7.50019C8.51909 7.50019 7.21626 8.03967 6.2555 9.00002L2.99956 12.2578C2.28352 12.9736 1.79573 13.8855 1.59782 14.8784C1.39991 15.8713 1.50076 16.9006 1.88764 17.8361C2.27451 18.7717 2.93005 19.5716 3.77139 20.1348C4.61274 20.6979 5.60214 20.999 6.61456 21C7.28756 21.002 7.95427 20.8704 8.57607 20.6129C9.19788 20.3554 9.76243 19.9772 10.2371 19.5L11.2683 18.4688C11.3897 18.3258 11.4531 18.1426 11.446 17.9551C11.439 17.7677 11.362 17.5898 11.2302 17.4563C11.0984 17.3229 10.9214 17.2437 10.7341 17.2343C10.5468 17.2249 10.3628 17.2861 10.2183 17.4056Z" fill="#4F4F4F"/>
</g>
</svg>
