<svg width="18" height="18" viewBox="0 0 18 18" fill="none" xmlns="http://www.w3.org/2000/svg">
<path d="M9 0C7.21997 0 5.47991 0.527841 3.99987 1.51677C2.51983 2.50571 1.36628 3.91131 0.685088 5.55585C0.00389956 7.20038 -0.17433 9.00998 0.172937 10.7558C0.520203 12.5016 1.37737 14.1053 2.63604 15.364C3.89472 16.6226 5.49836 17.4798 7.24419 17.8271C8.99002 18.1743 10.7996 17.9961 12.4442 17.3149C14.0887 16.6337 15.4943 15.4802 16.4832 14.0001C17.4722 12.5201 18 10.78 18 9C17.9976 6.61378 17.0486 4.32598 15.3613 2.63867C13.674 0.951359 11.3862 0.00238264 9 0ZM14.3451 6.9417V7.5231C14.3451 7.5676 14.3362 7.61165 14.3189 7.65264C14.3016 7.69364 14.2763 7.73076 14.2444 7.7618C14.2125 7.79285 14.1747 7.81718 14.1333 7.83338C14.0919 7.84958 14.0476 7.8573 14.0031 7.8561C13.0529 7.78875 12.1438 7.44179 11.3904 6.8589V11.1141C11.3903 11.5851 11.2963 12.0513 11.114 12.4855C10.9316 12.9197 10.6646 13.3133 10.3284 13.6431C9.98923 13.9812 9.58617 14.2484 9.14272 14.4292C8.69926 14.6099 8.22427 14.7007 7.7454 14.6961C6.78234 14.6944 5.85804 14.3166 5.1696 13.6431C4.73165 13.2016 4.41621 12.6536 4.2543 12.0532C4.09239 11.4527 4.0896 10.8205 4.2462 10.2186C4.3893 9.6408 4.6782 9.1098 5.0859 8.6769C5.38995 8.30527 5.77321 8.0063 6.20766 7.80185C6.6421 7.59739 7.11676 7.49262 7.5969 7.4952H8.3349V9.0279C8.33523 9.07241 8.32606 9.11648 8.30801 9.15717C8.28997 9.19787 8.26345 9.23424 8.23024 9.26388C8.19702 9.29352 8.15787 9.31573 8.1154 9.32905C8.07292 9.34236 8.02809 9.34647 7.9839 9.3411C7.5554 9.21239 7.09367 9.25508 6.69604 9.46017C6.2984 9.66527 5.99593 10.0167 5.85238 10.4405C5.70883 10.8643 5.73542 11.3272 5.92655 11.7317C6.11767 12.1363 6.4584 12.4508 6.8769 12.609C7.1199 12.7485 7.3917 12.8304 7.6707 12.8493C7.8867 12.8583 8.1027 12.8313 8.3079 12.7665C8.65061 12.6512 8.94873 12.4316 9.16059 12.1386C9.37246 11.8456 9.48748 11.4937 9.4896 11.1321V3.3786C9.48948 3.33609 9.49775 3.29398 9.51394 3.25468C9.53012 3.21537 9.5539 3.17965 9.58392 3.14955C9.61393 3.11945 9.64959 3.09557 9.68885 3.07928C9.72811 3.06299 9.7702 3.0546 9.8127 3.0546H11.0862C11.169 3.05448 11.2487 3.08617 11.3088 3.14311C11.369 3.20005 11.4049 3.27791 11.4093 3.3606C11.4559 3.75766 11.5821 4.14125 11.7803 4.48842C11.9786 4.83559 12.2448 5.1392 12.5631 5.3811C12.9934 5.7041 13.5044 5.90216 14.04 5.9535C14.1202 5.96036 14.1952 5.99605 14.2512 6.05396C14.3071 6.11188 14.3401 6.18809 14.3442 6.2685L14.3451 6.9417Z" fill="#323232"/>
</svg>
