<svg xmlns="http://www.w3.org/2000/svg" viewBox="0 0 128 128" id="responsibility"><path fill="#ffffff" d="M117.392,87.432a10.837,10.837,0,0,0-14.477-4.259l-22.643,11.8A9.008,9.008,0,0,0,74.1,87.833L57.9,82.738c-.011,0-.021-.01-.032-.013L42.776,77.977c-5.743-1.833-6.4-1.775-11.734,1.038L15.977,86.872c-3.386,1.76-5.662,3.092-6.409,5.466s.353,4.764,2.116,8.148l8.43,16.172c3.773,7.219,5.739,7.891,13.145,4.506l2.629-1.2,27.792,2.7,1.977.2c2.013.2,3.461.335,4.666.335,2.777,0,4.263-.7,8.389-2.878l34.251-17.864a10.872,10.872,0,0,0,4.429-15.016Zm-3.821,7.041a5.815,5.815,0,0,1-2.918,3.54l-32.509,16.95-1.762.925c-4.816,2.537-4.817,2.537-10.224,1.991L35.7,114.922a2.515,2.515,0,0,0-1.28.214l-3.24,1.48c-1.1.5-3.666,1.669-4.23,1.526-.543-.235-1.848-2.733-2.4-3.8L16.118,98.175c-.484-.928-1.956-3.756-1.781-4.336s3.017-2.048,3.948-2.532l13.933-7.262,1.156-.607c2-1.054,3.1-1.634,3.822-1.7a14.076,14.076,0,0,1,4.061,1l9.7,3.052a.271.271,0,0,1,.03.013L72.6,92.6a4.006,4.006,0,1,1-2.406,7.643l-2.466-.776L66,98.926l-.012,0L48.582,93.447a2.5,2.5,0,1,0-1.5,4.769l18.64,5.865,3.926,1.24a2.152,2.152,0,0,0,1.181.067c.186.012.373.043.559.043a9.044,9.044,0,0,0,7.571-4.13l26.27-13.7a5.866,5.866,0,0,1,8.342,6.867Z" class="color231f20 svgShape"></path><path fill="#ffffff" d="M106.772,42.334l-.068-.024-.031-.011-.552-.192a15.85,15.85,0,0,1-1.5-.562,15.586,15.586,0,0,1-.6-1.478l-.21-.552q-.411-1.073-.874-2.114l-.238-.531c-.269-.6-.548-1.222-.617-1.477a15.775,15.775,0,0,1,.663-1.461l.251-.519.013-.026.033-.069c3-6.219,2.8-7.363-2.151-12.316l-3.2-3.2c-4.884-4.884-6.029-5.077-12.247-2.079l-.62.3a15.644,15.644,0,0,1-1.452.659,15.786,15.786,0,0,1-1.467-.613l-.543-.243q-1.041-.463-2.111-.873l-.545-.206c-.618-.235-1.256-.477-1.486-.608a16.057,16.057,0,0,1-.568-1.508l-.177-.512-.045-.129C74.153,5.475,73.207,4.8,66.3,4.8H61.678c-6.9,0-7.849.673-10.16,7.285-.006.019-.013.039-.02.058l-.173.5a16.006,16.006,0,0,1-.562,1.5c-.231.131-.864.371-1.476.6l-.556.211q-1.069.409-2.113.874l-.534.238a15.78,15.78,0,0,1-1.475.616c-.254-.077-.867-.374-1.462-.662l-.516-.251-.04-.019-.054-.026c-6.222-3-7.365-2.8-12.247,2.079l-3.268,3.268c-4.882,4.882-5.077,6.026-2.077,12.247l.3.627a15.841,15.841,0,0,1,.656,1.445,15.754,15.754,0,0,1-.611,1.46l-.242.54q-.465,1.046-.876,2.12l-.207.544a15.953,15.953,0,0,1-.609,1.487,15.792,15.792,0,0,1-1.507.567l-.643.223c-6.517,2.279-7.188,3.225-7.188,10.13v4.621c0,6.905.671,7.851,7.19,10.13.9.31,1.862.637,2.143.786.277.491.756,2.057,1.639,4.025l.054.12a2.5,2.5,0,1,0,4.568-2.03l-.057-.13c-.6-1.349-.752-1.838-.929-2.283-1.236-3.277-1.811-3.836-5.126-4.985l-.535-.186-.825,2.36.717-2.4a15.657,15.657,0,0,1-3.612-1.5,15.667,15.667,0,0,1-.227-3.906V52.463a15.657,15.657,0,0,1,.227-3.905,15.609,15.609,0,0,1,3.611-1.5l.629-.22c3.33-1.153,3.909-1.715,5.156-5.007l.2-.53q.363-.948.773-1.871l.235-.525c1.433-3.189,1.421-3.989-.106-7.137l-.249-.513-.049-.1a15.592,15.592,0,0,1-1.491-3.618,15.559,15.559,0,0,1,2.6-2.923l3.267-3.268a15.593,15.593,0,0,1,2.924-2.6,16.208,16.208,0,0,1,3.616,1.49l.091.044.036.017.472.228c3.162,1.535,3.966,1.548,7.166.111l.52-.233q.923-.408,1.867-.771l.541-.2c3.282-1.243,3.841-1.82,4.993-5.142l.186-.537.033-.1h0a15.6,15.6,0,0,1,1.5-3.613A15.126,15.126,0,0,1,61.6,9.8h4.7a16.535,16.535,0,0,1,3.905.228,15.629,15.629,0,0,1,1.5,3.613l.219.629c1.153,3.329,1.715,3.906,5.005,5.153l.532.2q.945.363,1.863.771l.528.236c3.194,1.434,4,1.423,7.151-.109l.607-.294a15.374,15.374,0,0,1,3.617-1.49,15.561,15.561,0,0,1,2.924,2.6l3.2,3.2.07.071a15.616,15.616,0,0,1,2.6,2.923,15.554,15.554,0,0,1-1.49,3.617l-.044.092-.011.023-.235.485c-1.535,3.161-1.547,3.965-.109,7.169l.233.521q.409.918.77,1.862l.2.538c1.244,3.284,1.821,3.844,5.141,4.994l.515.179.028.01.1.034a15.6,15.6,0,0,1,3.612,1.5,15.59,15.59,0,0,1,.228,3.905v4.622a15.586,15.586,0,0,1-.228,3.905,16.062,16.062,0,0,1-3.708,1.538l-.031.011-.5.174c-3.331,1.154-3.909,1.715-5.155,5.005l-.2.533q-.363.943-.772,1.863l-.236.529c-1.434,3.194-1.421,4,.111,7.151l.236.487a2.5,2.5,0,0,0,4.586-1.989c-.022-.052-.045-.105-.07-.156l-.255-.526c-.286-.59-.582-1.2-.66-1.454.07-.255.346-.87.613-1.466l.243-.542q.463-1.041.874-2.113l.208-.546A15.775,15.775,0,0,1,104.624,68a16.074,16.074,0,0,1,1.508-.566l.544-.19c.031-.011.063-.022.095-.035v0c6.519-2.279,7.191-3.225,7.191-10.13V52.464C113.963,45.559,113.291,44.612,106.772,42.334Z" class="color9396a2 svgShape"></path><path fill="#ffffff" d="M63.991,30.7A24.077,24.077,0,0,0,49.71,74.159a2.5,2.5,0,0,0,2.969-4.024,19.071,19.071,0,1,1,17.342,2.744A2.5,2.5,0,1,0,71.6,77.623,24.079,24.079,0,0,0,63.991,30.7Z" class="color9396a2 svgShape"></path><path fill="#ffffff" d="M74.6,46.68a2.5,2.5,0,0,0-3.535,0l-9.787,9.786-4.37-4.37a2.5,2.5,0,1,0-3.535,3.535l6.138,6.138a2.5,2.5,0,0,0,3.535,0L74.6,50.215A2.5,2.5,0,0,0,74.6,46.68Z" class="color231f20 svgShape"></path></svg>